{"glyphs":{"0":{"ha":810,"x_min":86,"x_max":725,"o":"m 725 482 q 661 158 725 286 q 406 -8 578 -8 q 153 147 232 -8 q 86 460 86 271 q 151 781 86 653 q 403 944 235 944 q 657 792 576 944 q 725 482 725 669 m 600 476 q 407 836 600 836 q 210 453 206 836 q 407 99 210 99 q 600 476 604 99 z "},"1":{"ha":528,"x_min":94,"x_max":385,"o":"m 385 0 l 254 0 l 254 754 l 94 699 l 94 722 l 343 936 l 385 936 l 385 0 z "},"2":{"ha":810,"x_min":107,"x_max":722,"o":"m 722 0 l 110 0 l 110 119 q 233 296 110 203 l 460 467 q 582 656 582 560 q 535 788 582 740 q 406 836 489 836 q 229 704 229 836 l 107 651 q 188 867 107 789 q 408 944 269 944 q 628 865 544 944 q 711 650 711 785 q 590 429 711 547 q 365 250 563 401 q 244 107 244 157 l 722 107 l 722 0 z "},"3":{"ha":810,"x_min":69,"x_max":735,"o":"m 735 263 q 635 57 735 129 q 408 -8 546 -8 q 69 310 76 -8 l 196 288 q 247 140 201 179 q 400 101 293 101 q 604 269 604 101 q 531 400 604 357 q 376 435 471 435 l 376 535 q 582 683 582 535 q 525 803 582 760 q 394 842 474 842 q 197 656 211 842 l 74 631 q 81 707 75 656 q 189 888 93 824 q 396 944 274 944 q 611 881 526 944 q 707 683 707 810 q 593 486 707 556 q 735 263 735 415 z "},"4":{"ha":778,"x_min":58,"x_max":713,"o":"m 713 225 l 604 225 l 604 0 l 482 0 l 482 225 l 58 225 l 58 350 l 525 961 l 604 961 l 604 331 l 713 331 l 713 225 m 482 331 l 483 740 l 185 331 l 482 331 z "},"5":{"ha":810,"x_min":86,"x_max":729,"o":"m 729 326 q 654 106 729 200 q 399 -8 564 -8 q 86 240 131 -8 l 211 221 q 393 99 236 79 q 549 167 493 99 q 601 332 601 231 q 547 488 601 429 q 397 547 493 547 q 288 533 322 547 q 213 454 236 513 l 100 454 l 103 935 l 664 936 l 664 826 l 224 826 l 219 611 q 310 651 256 643 q 421 656 338 656 q 649 561 564 656 q 729 326 729 472 z "},"6":{"ha":810,"x_min":99,"x_max":719,"o":"m 718 688 l 610 721 q 428 829 600 829 q 277 763 328 829 q 226 596 226 697 l 226 554 l 229 557 q 421 626 299 626 q 640 540 561 626 q 719 311 719 453 q 646 100 719 190 q 399 -8 557 -8 q 126 139 203 -8 q 99 231 99 188 l 99 601 q 174 822 99 729 q 422 936 265 936 q 718 688 690 936 m 599 317 q 545 467 599 411 q 397 522 492 522 q 285 489 332 522 q 221 390 221 451 l 221 229 q 251 157 225 189 q 393 94 304 94 q 546 158 490 94 q 599 317 599 218 z "},"7":{"ha":775,"x_min":92,"x_max":733,"o":"m 696 829 q 639 664 685 783 l 339 0 l 192 0 l 517 704 q 549 825 550 776 l 92 825 l 92 936 l 733 936 l 696 829 z "},"8":{"ha":810,"x_min":81,"x_max":733,"o":"m 733 282 q 633 64 733 142 q 406 -8 542 -8 q 181 63 263 -8 q 81 278 81 139 q 208 503 81 419 l 218 503 q 133 683 133 567 q 217 869 133 801 q 406 933 293 933 q 599 869 531 933 q 679 679 679 801 q 593 503 679 567 l 600 503 q 733 282 733 422 m 565 679 q 520 789 567 750 q 408 828 474 828 q 297 792 336 828 q 246 682 246 753 q 294 574 246 611 q 403 540 338 540 q 565 679 571 540 m 604 282 q 539 410 603 367 q 401 447 483 447 q 268 408 313 447 q 207 279 207 364 q 271 147 207 193 q 408 106 328 106 q 544 149 497 106 q 604 282 606 196 z "},"9":{"ha":810,"x_min":101,"x_max":726,"o":"m 726 326 q 651 106 726 199 q 404 -8 560 -8 q 101 240 136 -8 l 226 203 q 399 99 233 101 q 546 167 499 99 q 599 332 599 231 l 599 374 l 596 371 q 406 301 526 301 q 189 389 265 301 q 113 617 113 476 q 186 828 113 738 q 428 936 275 936 q 700 789 626 936 q 726 697 726 742 l 726 326 m 604 538 l 604 699 q 574 771 600 739 q 433 833 521 833 q 287 772 336 833 q 238 611 238 710 q 291 461 238 517 q 429 406 344 406 q 540 439 494 406 q 604 538 604 476 z "},"!":{"ha":376,"x_min":154,"x_max":275,"o":"m 275 456 l 219 204 l 211 204 l 154 457 l 154 993 l 218 1053 l 275 993 l 275 456 m 274 63 q 258 19 274 38 q 215 0 243 0 q 173 19 190 0 q 156 63 156 38 q 171 106 156 88 q 215 125 186 125 q 256 106 239 125 q 274 63 274 88 z "},"\"":{"ha":550,"x_min":85,"x_max":469,"o":"m 469 853 l 415 657 l 404 657 l 349 854 l 349 1036 l 410 1081 l 469 1036 l 469 853 m 206 853 l 151 657 l 140 657 l 85 854 l 85 1036 l 144 1081 l 206 1036 l 206 853 z "},"#":{"ha":799,"x_min":60,"x_max":739,"o":"m 739 564 l 576 564 l 563 449 l 656 449 l 710 336 l 547 336 l 526 174 l 424 243 l 435 336 l 319 336 l 299 174 l 196 243 l 207 336 l 114 336 l 60 449 l 222 449 l 236 564 l 143 564 l 89 676 l 251 676 l 272 839 l 375 769 l 364 676 l 479 676 l 500 839 l 603 769 l 592 676 l 685 676 l 739 564 m 464 564 l 349 564 l 335 449 l 450 449 l 464 564 z "},"$":{"ha":868,"x_min":63,"x_max":806,"o":"m 806 276 q 692 43 806 126 q 488 -24 613 -15 l 488 -131 l 433 -157 l 381 -131 l 381 -22 q 63 267 106 8 l 192 267 q 381 81 222 111 l 381 456 q 101 719 107 522 q 183 907 101 833 q 381 988 260 976 l 381 1089 l 432 1113 l 488 1089 l 488 986 q 785 724 732 964 l 665 724 q 488 886 642 864 l 488 565 l 504 560 q 651 518 557 547 q 806 276 806 447 m 381 594 l 381 885 q 225 738 231 861 q 271 639 225 675 q 381 594 303 614 m 676 268 q 501 429 676 396 l 488 432 l 488 78 q 624 137 571 88 q 676 268 676 186 z "},"%":{"ha":1244,"x_min":26,"x_max":1192,"o":"m 1192 313 q 964 -6 1192 -6 q 732 307 732 -6 q 967 632 732 632 q 1192 313 1192 632 m 853 925 l 440 0 l 375 -35 l 365 36 l 772 947 l 835 985 l 853 925 m 486 631 q 257 311 486 311 q 26 625 26 311 q 261 949 26 949 q 486 631 486 949 m 1088 325 q 1075 481 1088 446 q 969 546 1051 546 q 853 475 878 546 q 838 306 838 432 q 851 146 838 183 q 963 79 876 79 q 1076 156 1053 79 q 1088 325 1088 192 m 382 643 q 368 797 382 758 q 264 864 344 864 q 146 793 172 864 q 131 624 131 751 q 146 464 131 506 q 257 396 171 396 q 371 472 347 396 q 382 643 382 508 z "},"&":{"ha":721,"x_min":61,"x_max":675,"o":"m 675 53 q 588 -163 675 -83 q 364 -243 501 -243 l 299 -199 l 363 -153 q 510 -101 456 -153 q 568 44 564 -49 q 364 -19 486 -19 q 150 56 224 -19 q 61 272 61 133 q 101 429 61 357 q 215 538 142 501 q 138 719 138 608 q 203 898 138 829 q 368 967 269 967 q 535 899 475 967 q 593 724 594 831 q 528 548 592 615 q 365 481 464 481 q 342 482 353 481 q 178 271 167 467 q 363 71 178 71 q 569 276 551 71 l 613 343 l 664 276 l 675 53 m 482 724 q 369 876 488 876 q 279 829 304 876 q 247 719 247 788 q 275 622 247 663 q 349 572 306 578 l 368 572 l 368 571 q 450 621 426 572 q 482 724 479 663 z "},"'":{"ha":289,"x_min":90,"x_max":200,"o":"m 200 853 l 150 657 l 140 657 l 90 854 l 90 1031 l 143 1094 l 200 1031 l 200 853 z "},"(":{"ha":435,"x_min":121,"x_max":413,"o":"m 407 -175 l 376 -233 l 324 -175 q 201 60 254 -78 q 121 442 121 258 q 256 942 121 701 q 313 1063 281 985 l 372 1128 l 413 1063 q 219 446 201 694 q 283 122 219 299 q 407 -175 339 -33 z "},")":{"ha":435,"x_min":28,"x_max":315,"o":"m 315 444 q 110 -175 315 144 l 67 -221 l 28 -175 q 219 442 239 182 q 28 1063 219 721 l 69 1110 l 110 1063 q 315 444 315 751 z "},"*":{"ha":521,"x_min":18,"x_max":503,"o":"m 479 796 l 404 769 l 313 738 l 371 656 l 417 590 l 419 542 l 374 558 l 328 624 l 267 718 l 206 622 l 160 557 l 114 540 l 113 593 l 158 658 l 222 740 l 117 778 l 42 804 l 18 847 l 64 858 l 139 831 l 239 785 l 229 899 l 229 978 l 260 1018 l 294 979 l 294 899 l 285 781 l 383 821 l 460 847 l 503 838 l 479 796 z "},"+":{"ha":765,"x_min":38,"x_max":721,"o":"m 685 349 l 433 349 l 433 97 l 378 67 l 322 97 l 322 349 l 74 349 l 38 404 l 74 460 l 322 460 l 322 708 l 376 742 l 433 708 l 433 460 l 685 460 l 721 406 l 685 349 z "},",":{"ha":318,"x_min":83,"x_max":225,"o":"m 225 76 q 150 -175 225 -86 l 136 -175 q 147 0 176 -82 q 101 25 119 3 q 83 76 83 47 q 103 130 83 107 q 154 153 124 153 q 205 130 185 153 q 225 76 225 107 z "},"-":{"ha":540,"x_min":40,"x_max":485,"o":"m 461 360 l 60 360 l 40 404 l 60 450 l 461 450 l 485 406 l 461 360 z "},".":{"ha":318,"x_min":93,"x_max":225,"o":"m 225 76 q 206 27 225 46 q 158 8 188 8 q 111 32 129 8 q 93 76 93 56 q 111 124 93 106 q 158 143 129 143 q 206 120 188 143 q 225 76 225 97 z "},"/":{"ha":554,"x_min":46,"x_max":515,"o":"m 515 928 l 117 -1 l 71 -49 l 46 18 l 439 947 l 497 979 l 515 928 z "},":":{"ha":376,"x_min":149,"x_max":281,"o":"m 281 590 q 262 543 281 560 q 214 526 243 526 q 167 550 185 526 q 149 590 149 574 q 167 638 149 619 q 214 657 185 657 q 262 634 243 657 q 281 590 281 611 m 281 76 q 262 29 281 46 q 214 13 243 13 q 167 36 185 13 q 149 76 149 60 q 167 123 149 106 q 214 140 185 140 q 262 117 243 140 q 281 76 281 94 z "},";":{"ha":376,"x_min":139,"x_max":281,"o":"m 281 590 q 262 543 281 560 q 214 526 243 526 q 167 550 185 526 q 149 590 149 574 q 167 638 149 619 q 214 657 185 657 q 262 634 243 657 q 281 590 281 611 m 281 76 q 204 -175 249 -86 l 186 -175 q 203 0 226 -82 q 157 25 175 3 q 139 76 139 47 q 159 130 139 107 q 210 153 179 153 q 260 130 240 153 q 281 76 281 107 z "},"<":{"ha":796,"x_min":57,"x_max":792,"o":"m 789 44 l 650 90 l 57 358 l 57 461 l 647 715 l 792 767 l 739 643 l 201 413 l 739 169 l 789 44 z "},"=":{"ha":756,"x_min":75,"x_max":678,"o":"m 678 460 l 75 460 l 75 571 l 678 571 l 678 460 m 678 238 l 75 238 l 75 349 l 678 349 l 678 238 z "},">":{"ha":796,"x_min":4,"x_max":739,"o":"m 739 358 l 146 90 l 4 38 l 57 169 l 594 413 l 57 643 l 10 778 l 149 725 l 739 461 l 739 358 z "},"?":{"ha":781,"x_min":94,"x_max":719,"o":"m 719 689 q 658 542 719 608 q 522 453 603 481 q 467 336 457 431 l 467 208 l 357 208 l 357 356 q 403 490 357 447 q 525 564 433 519 q 584 621 563 581 q 606 704 606 661 q 543 839 606 789 q 408 885 486 885 q 208 738 231 876 l 99 654 q 208 922 94 833 q 410 989 293 989 q 628 910 549 989 q 719 689 719 826 m 467 65 q 451 27 467 40 q 413 14 436 14 q 372 33 388 14 q 357 65 357 51 q 372 104 357 90 q 413 118 388 118 q 451 99 436 118 q 467 65 467 81 z "},"@":{"ha":1244,"x_min":96,"x_max":1244,"o":"m 1149 586 q 1063 268 1149 413 q 829 97 961 97 q 713 215 722 97 q 617 142 689 171 q 536 115 554 117 q 425 143 468 114 q 375 242 375 176 q 425 367 375 310 q 674 474 501 453 l 679 474 q 769 497 742 479 q 779 560 779 529 q 682 658 779 660 q 525 585 554 656 l 425 538 q 468 625 433 564 q 696 733 549 731 q 822 706 772 735 q 883 597 883 669 q 865 490 883 569 l 810 247 q 857 179 801 179 q 1013 344 946 179 q 1068 585 1068 482 q 975 826 1068 740 q 725 913 882 913 q 328 738 486 913 q 174 326 174 568 q 325 -3 174 111 q 626 -96 449 -96 q 846 -60 735 -96 q 1035 51 976 -18 l 1244 150 q 631 -172 1033 -92 q 278 -62 425 -172 q 96 328 96 74 q 278 798 96 607 q 738 989 460 989 q 1038 882 928 989 q 1149 586 1149 775 m 756 429 q 638 390 742 418 q 485 264 485 361 q 575 199 485 197 q 707 289 688 200 q 756 429 731 324 z "},"A":{"ha":897,"x_min":25,"x_max":871,"o":"m 871 0 l 733 0 l 636 300 l 263 300 l 164 0 l 25 0 l 447 981 l 485 981 l 871 0 m 597 410 l 454 754 l 304 410 l 597 410 z "},"B":{"ha":935,"x_min":121,"x_max":860,"o":"m 847 271 q 532 0 847 0 l 121 0 l 121 981 l 483 981 q 571 974 550 981 q 722 892 669 956 q 775 729 775 828 q 685 536 775 596 q 847 271 860 464 m 628 722 q 479 865 628 865 l 244 865 l 244 568 l 476 568 q 628 722 667 568 m 703 281 q 631 438 694 394 q 599 453 618 443 q 526 457 579 457 l 244 457 l 244 115 l 549 115 q 611 124 592 115 q 703 281 707 144 z "},"C":{"ha":971,"x_min":71,"x_max":921,"o":"m 921 315 q 758 64 874 168 q 494 -25 646 -25 q 176 132 283 -25 q 71 490 71 272 q 182 853 71 714 q 511 1006 303 1006 q 903 749 788 1006 l 763 799 q 510 901 679 914 q 274 775 347 901 q 201 497 201 667 q 272 215 201 326 q 508 83 356 83 q 683 140 610 83 q 797 253 756 197 l 921 315 z "},"D":{"ha":938,"x_min":121,"x_max":856,"o":"m 856 490 q 474 0 856 0 l 121 0 l 121 981 l 443 981 q 582 965 536 981 q 856 490 856 899 m 722 489 q 661 763 722 676 q 424 865 588 865 l 254 865 l 254 113 l 443 113 q 665 222 611 113 q 722 489 722 311 z "},"E":{"ha":839,"x_min":108,"x_max":801,"o":"m 801 0 l 108 0 l 108 981 l 785 981 l 728 865 l 235 865 l 235 563 l 667 563 l 667 447 l 235 447 l 235 114 l 758 114 l 801 0 z "},"F":{"ha":708,"x_min":115,"x_max":710,"o":"m 664 865 l 246 865 l 246 575 l 647 575 l 610 461 l 246 461 l 246 0 l 115 0 l 115 982 l 710 982 l 664 865 z "},"G":{"ha":1013,"x_min":61,"x_max":901,"o":"m 901 214 l 849 156 l 803 113 q 488 -21 678 -21 q 164 135 278 -21 q 61 490 61 274 q 169 850 61 713 q 504 1001 288 1001 q 740 940 638 1001 q 893 761 842 879 l 771 789 q 503 899 681 910 q 260 772 342 899 q 189 497 189 665 q 258 217 189 326 q 501 86 340 86 q 690 143 606 86 q 803 297 774 200 l 803 399 l 615 407 l 538 504 l 901 504 l 901 214 z "},"H":{"ha":990,"x_min":118,"x_max":869,"o":"m 869 0 l 738 36 l 738 449 l 249 449 l 249 36 l 118 0 l 118 982 l 249 944 l 249 564 l 738 564 l 738 944 l 869 982 l 869 0 z "},"I":{"ha":318,"x_min":96,"x_max":222,"o":"m 222 36 l 96 0 l 96 949 l 222 981 l 222 36 z "},"J":{"ha":521,"x_min":42,"x_max":413,"o":"m 413 319 q 42 -3 413 -3 l 74 111 q 279 333 293 97 l 279 921 l 413 982 l 413 319 z "},"K":{"ha":868,"x_min":93,"x_max":835,"o":"m 835 0 l 676 15 l 318 438 l 224 342 l 224 43 l 93 0 l 93 981 l 224 950 l 224 501 l 657 956 l 818 981 l 408 531 l 835 0 z "},"L":{"ha":724,"x_min":94,"x_max":701,"o":"m 656 0 l 94 0 l 94 938 l 225 981 l 225 117 l 701 117 l 656 0 z "},"M":{"ha":1128,"x_min":94,"x_max":1035,"o":"m 1035 0 l 906 0 l 904 718 l 924 822 l 585 -154 l 568 -154 l 208 810 l 222 722 l 222 0 l 94 0 l 94 981 l 263 981 l 564 136 l 867 981 l 1035 981 l 1035 0 z "},"N":{"ha":983,"x_min":108,"x_max":875,"o":"m 875 -124 l 757 25 l 219 797 l 231 750 l 231 58 l 108 0 l 108 981 l 231 981 l 763 194 l 757 244 l 757 924 l 875 981 l 875 -124 z "},"O":{"ha":1068,"x_min":82,"x_max":967,"o":"m 967 500 q 854 138 967 272 q 522 -7 733 -7 q 194 135 303 -7 q 82 490 82 267 q 196 847 82 715 q 526 988 315 988 q 850 849 740 988 q 967 500 967 717 m 836 499 q 763 768 836 669 q 526 881 679 881 q 286 764 360 881 q 213 489 213 663 q 286 214 213 315 q 526 97 371 97 q 767 218 697 97 q 836 499 836 319 z "},"P":{"ha":868,"x_min":106,"x_max":825,"o":"m 825 703 q 779 536 825 610 q 644 431 731 457 q 515 415 594 415 l 232 415 l 232 58 l 106 0 l 106 981 l 515 981 q 657 964 607 981 q 825 703 825 908 m 696 706 q 521 868 696 868 l 232 868 l 232 531 l 506 531 q 696 706 696 531 z "},"Q":{"ha":1128,"x_min":68,"x_max":1058,"o":"m 1058 500 q 944 142 1058 282 q 611 -24 825 -7 q 689 -97 669 -83 q 789 -146 733 -129 q 881 -185 828 -171 l 1029 -265 q 863 -281 1011 -290 q 756 -264 794 -281 q 686 -236 708 -251 q 543 -114 642 -218 q 397 -24 457 -24 q 68 -164 318 -24 l 153 -33 q 265 65 214 28 q 71 490 71 206 q 199 860 71 729 q 565 992 326 992 q 929 863 800 992 q 1058 500 1058 735 m 917 499 q 565 886 914 886 q 213 489 213 886 q 299 200 213 310 q 567 78 393 78 q 836 204 744 78 q 917 499 918 315 z "},"R":{"ha":907,"x_min":125,"x_max":821,"o":"m 821 694 q 707 465 821 547 q 810 239 810 403 l 810 0 l 679 0 l 679 238 q 642 356 679 308 q 535 413 604 403 q 481 415 517 415 l 253 417 l 253 64 l 125 0 l 125 981 l 453 981 q 592 972 542 981 q 761 881 701 954 q 821 694 821 807 m 690 693 q 653 811 690 764 q 546 868 615 858 q 456 872 517 872 l 253 872 l 253 525 l 476 525 q 690 693 690 525 z "},"S":{"ha":926,"x_min":56,"x_max":858,"o":"m 858 282 q 735 46 858 128 q 467 -25 629 -25 q 199 42 303 -25 q 56 346 81 117 l 199 218 q 290 108 201 153 q 472 76 361 63 q 640 122 574 76 q 717 272 717 175 q 531 436 717 399 l 449 453 q 221 528 296 483 q 99 732 99 600 q 213 940 99 865 q 451 1006 311 1006 q 836 692 778 1006 l 706 814 q 456 904 653 885 q 308 871 368 904 q 233 750 233 831 q 299 642 233 681 q 426 597 333 621 l 535 569 q 689 526 592 554 q 858 282 858 456 z "},"T":{"ha":753,"x_min":14,"x_max":733,"o":"m 636 867 l 440 867 l 440 -11 l 308 -167 l 308 867 l 14 867 l 114 982 l 733 982 l 636 867 z "},"U":{"ha":956,"x_min":118,"x_max":838,"o":"m 838 328 q 469 -24 838 -24 q 125 203 156 -24 q 118 346 118 239 l 118 874 l 250 982 l 250 364 q 256 239 250 272 q 469 86 281 86 q 657 157 613 86 q 706 367 706 219 l 706 882 l 838 982 l 838 328 z "},"V":{"ha":839,"x_min":15,"x_max":822,"o":"m 822 981 l 418 -214 l 404 -214 l 15 981 l 154 981 l 414 61 l 683 981 l 822 981 z "},"W":{"ha":1418,"x_min":53,"x_max":1338,"o":"m 1338 981 l 1040 -119 l 1021 -119 l 693 813 l 376 -119 l 354 -119 l 53 981 l 190 944 l 364 122 l 367 49 l 381 122 l 629 981 l 757 981 l 1013 125 l 1029 49 l 1032 122 l 1203 925 l 1338 981 z "},"X":{"ha":868,"x_min":29,"x_max":840,"o":"m 840 -42 l 686 61 l 432 399 l 181 61 l 29 -42 l 356 514 l 47 981 l 203 953 l 432 628 l 650 953 l 804 981 l 506 514 l 840 -42 z "},"Y":{"ha":868,"x_min":18,"x_max":849,"o":"m 849 981 l 496 449 l 482 -36 l 383 -36 l 364 449 l 18 981 l 174 931 l 431 565 l 693 931 l 849 981 z "},"Z":{"ha":839,"x_min":43,"x_max":797,"o":"m 797 0 l 43 0 l 43 128 l 635 860 l 150 860 l 50 981 l 797 981 l 797 858 l 194 118 l 708 118 l 797 0 z "},"[":{"ha":435,"x_min":164,"x_max":392,"o":"m 392 -154 l 164 -154 l 164 1090 l 392 1090 l 325 1004 l 275 1004 l 275 -71 l 325 -71 l 392 -154 z "},"\\":{"ha":554,"x_min":11,"x_max":544,"o":"m 544 0 l 449 39 l 11 949 l 117 894 l 544 0 z "},"]":{"ha":435,"x_min":43,"x_max":271,"o":"m 271 -154 l 43 -154 l 104 -68 l 160 -68 l 160 1007 l 104 1007 l 43 1090 l 271 1090 l 271 -154 z "},"^":{"ha":572,"x_min":126,"x_max":469,"o":"m 469 550 l 400 669 l 294 846 l 192 669 l 126 550 l 126 758 l 242 963 l 344 963 l 469 761 l 469 550 z "},"_":{"ha":694,"x_min":0,"x_max":694,"o":"m 603 -221 l 0 -221 l 75 -132 l 694 -132 l 603 -221 z "},"`":{"ha":376,"x_min":82,"x_max":313,"o":"m 313 717 l 225 779 l 156 844 l 82 1032 l 221 979 l 313 717 z "},"a":{"ha":694,"x_min":56,"x_max":583,"o":"m 583 53 l 476 0 l 476 54 q 267 -18 407 -18 q 124 29 175 -18 q 56 169 56 81 q 169 347 56 285 q 376 397 221 375 q 472 438 435 404 l 472 438 l 467 482 q 324 578 446 578 q 190 518 179 578 l 74 460 q 319 676 99 676 q 474 642 413 676 q 575 519 557 600 q 583 399 583 482 l 583 53 m 474 332 q 376 301 454 315 q 247 268 275 286 q 178 172 178 236 q 217 97 178 124 q 290 75 250 75 q 443 150 410 75 q 474 332 474 204 z "},"b":{"ha":781,"x_min":90,"x_max":717,"o":"m 717 326 q 642 83 717 176 q 425 -19 560 -19 q 201 71 269 -19 l 200 35 l 90 0 l 100 856 l 201 982 l 201 579 q 426 675 276 675 q 642 571 572 675 q 717 326 717 475 m 613 332 q 564 501 613 436 q 421 574 511 574 q 201 375 224 574 l 201 276 q 419 74 224 74 q 565 154 522 74 q 613 332 613 224 z "},"c":{"ha":724,"x_min":54,"x_max":675,"o":"m 675 232 q 381 -19 622 -6 q 141 74 228 -19 q 54 321 54 167 q 133 572 54 476 q 371 675 218 675 q 663 446 614 675 l 539 510 q 375 581 511 589 q 176 329 178 581 q 224 154 176 219 q 382 79 276 79 q 553 163 531 79 l 675 232 z "},"d":{"ha":781,"x_min":76,"x_max":700,"o":"m 700 103 l 589 0 l 589 71 q 365 -19 521 -19 q 151 83 219 -19 q 76 326 76 176 q 151 571 76 475 q 364 675 232 675 q 589 579 514 675 l 589 929 l 700 1029 l 700 103 m 589 276 l 589 375 q 369 574 567 574 q 229 501 268 574 q 181 332 181 436 q 228 154 181 224 q 371 74 282 74 q 589 276 567 74 z "},"e":{"ha":724,"x_min":60,"x_max":663,"o":"m 663 310 l 179 310 l 179 300 q 233 133 179 199 q 385 64 290 64 q 542 143 510 64 l 657 215 q 375 -19 589 0 q 140 82 221 -19 q 60 333 60 176 q 142 576 60 483 q 371 675 229 675 q 594 565 525 675 q 663 310 663 469 m 542 403 q 363 576 531 576 q 182 403 193 576 l 542 403 z "},"f":{"ha":376,"x_min":4,"x_max":374,"o":"m 318 865 q 281 867 269 867 q 226 799 219 839 q 210 654 214 764 l 342 654 l 308 563 l 210 563 l 210 74 l 101 1 l 101 563 l 4 563 l 43 654 l 101 654 l 101 658 q 151 896 101 826 q 374 978 213 978 l 318 865 z "},"g":{"ha":781,"x_min":65,"x_max":682,"o":"m 682 36 q 600 -211 682 -117 q 371 -311 514 -311 q 142 -214 221 -311 q 85 -72 106 -174 l 210 -147 q 369 -208 257 -233 q 567 75 575 -208 l 567 96 q 360 -19 485 -19 q 142 82 215 -19 q 65 324 65 175 q 140 569 65 475 q 361 675 222 675 q 567 581 494 675 l 567 654 l 682 751 l 682 36 m 567 265 l 567 406 q 357 575 536 576 q 213 497 258 574 q 165 328 165 431 q 214 154 165 221 q 364 79 268 79 q 567 265 546 79 z "},"h":{"ha":724,"x_min":92,"x_max":636,"o":"m 636 67 l 524 -14 l 524 360 q 506 510 524 468 q 382 578 476 578 q 204 290 204 578 l 204 67 l 92 -14 l 92 896 l 204 982 l 204 589 q 285 653 219 626 q 389 675 340 675 q 636 367 636 675 l 636 67 z "},"i":{"ha":289,"x_min":96,"x_max":206,"o":"m 206 889 q 190 851 206 864 q 150 838 174 838 q 111 856 126 838 q 96 889 96 875 q 111 928 96 914 q 150 943 126 943 q 190 924 174 943 q 206 889 206 906 m 203 22 l 99 -31 l 99 624 l 203 676 l 203 22 z "},"j":{"ha":289,"x_min":0,"x_max":201,"o":"m 201 878 q 186 838 201 853 q 147 824 171 824 q 107 842 122 824 q 92 878 92 861 q 107 917 92 903 q 147 932 122 932 q 186 913 171 932 q 201 878 201 894 m 199 -43 q 0 -312 199 -304 l 28 -194 q 90 -28 90 -149 l 90 603 l 199 725 l 199 -43 z "},"k":{"ha":636,"x_min":90,"x_max":628,"o":"m 628 0 l 489 0 l 261 293 l 203 231 l 203 31 l 90 -19 l 90 900 l 203 981 l 203 376 l 450 610 l 611 676 l 336 375 l 628 0 z "},"l":{"ha":289,"x_min":92,"x_max":199,"o":"m 199 61 l 92 0 l 92 925 l 199 981 l 199 61 z "},"m":{"ha":1071,"x_min":85,"x_max":982,"o":"m 982 57 l 874 -29 l 874 385 q 860 513 874 479 q 754 571 835 571 q 653 527 700 571 q 593 429 607 483 q 582 340 582 410 l 538 -110 l 524 -110 l 479 422 q 358 571 479 571 q 260 528 308 571 q 199 435 211 485 q 193 347 193 413 l 193 53 l 85 -47 l 85 654 l 193 654 l 193 581 q 375 675 274 675 q 567 568 506 675 q 657 638 585 586 q 771 675 710 675 q 969 542 931 675 q 982 411 982 499 l 982 57 z "},"n":{"ha":724,"x_min":90,"x_max":632,"o":"m 632 53 l 522 -50 l 522 372 q 507 514 522 479 q 389 571 482 572 q 242 489 290 569 q 201 318 201 424 l 201 53 l 90 -50 l 90 654 l 201 771 l 201 572 q 392 675 260 675 q 534 635 468 675 q 621 525 600 594 q 632 390 632 488 l 632 53 z "},"o":{"ha":753,"x_min":64,"x_max":689,"o":"m 689 328 q 607 81 689 175 q 378 -19 521 -19 q 149 78 228 -19 q 64 322 64 171 q 149 574 64 478 q 382 675 238 675 q 608 574 531 675 q 689 328 689 479 m 582 342 q 533 514 582 449 q 385 586 481 586 q 222 507 272 586 q 171 321 171 438 q 221 143 171 208 q 376 69 276 69 q 535 154 488 69 q 582 342 582 225 z "},"p":{"ha":781,"x_min":92,"x_max":710,"o":"m 710 329 q 635 85 710 181 q 419 -19 554 -19 q 203 76 269 -19 l 203 -249 l 92 -396 l 92 656 l 203 750 l 203 585 q 418 675 271 675 q 635 572 564 675 q 710 329 710 479 m 606 324 q 558 501 606 432 q 413 582 504 582 q 203 379 217 582 l 203 281 q 414 82 225 82 q 557 154 515 82 q 606 324 606 219 z "},"q":{"ha":781,"x_min":67,"x_max":693,"o":"m 693 -268 l 582 -371 l 582 76 q 357 -19 507 -19 q 142 85 211 -19 q 67 329 67 181 q 142 572 67 479 q 358 675 224 675 q 582 585 514 675 l 582 633 l 693 714 l 693 -268 m 582 281 l 582 379 q 364 582 560 582 q 218 501 261 582 q 171 324 171 432 q 219 154 171 219 q 363 82 272 82 q 582 281 560 82 z "},"r":{"ha":456,"x_min":90,"x_max":426,"o":"m 399 543 q 353 546 371 546 q 229 426 274 546 q 201 261 201 381 l 201 69 l 90 -28 l 90 654 l 201 724 l 201 549 q 426 663 257 657 l 399 543 z "},"s":{"ha":665,"x_min":56,"x_max":614,"o":"m 614 186 q 524 28 614 85 q 344 -21 447 -21 q 56 226 83 -21 l 179 168 q 350 64 193 42 q 499 172 504 64 q 454 249 499 224 q 368 276 428 264 l 306 289 q 157 340 196 311 q 79 479 79 389 q 160 629 79 578 q 324 674 228 674 q 497 626 431 674 q 596 456 576 575 l 476 514 q 311 589 456 589 q 233 567 261 589 q 190 493 190 540 q 236 426 190 451 q 339 390 265 410 l 401 375 q 533 325 494 353 q 614 186 614 275 z "},"t":{"ha":406,"x_min":24,"x_max":361,"o":"m 322 563 l 244 563 l 244 201 q 335 108 244 113 l 358 -18 q 136 174 160 -14 l 136 563 l 24 563 l 65 654 l 136 654 l 136 808 l 244 892 l 244 654 l 361 654 l 322 563 z "},"u":{"ha":724,"x_min":90,"x_max":619,"o":"m 619 -72 l 521 0 l 521 86 q 311 -17 444 -17 q 174 22 231 -17 q 96 140 110 65 q 90 271 90 169 l 90 635 l 200 738 l 200 281 q 217 144 200 179 q 333 88 244 88 q 521 368 521 88 l 521 635 l 619 738 l 619 -72 z "},"v":{"ha":607,"x_min":17,"x_max":603,"o":"m 603 743 l 319 -94 l 294 -94 l 17 654 l 101 735 l 297 199 l 306 139 l 317 194 l 478 654 l 603 743 z "},"w":{"ha":1013,"x_min":43,"x_max":971,"o":"m 971 654 l 719 -114 l 697 -114 l 504 488 l 306 -114 l 279 -114 l 43 654 l 163 654 l 299 168 l 301 211 l 460 654 l 556 654 l 708 215 l 711 168 l 854 654 l 971 654 z "},"x":{"ha":550,"x_min":11,"x_max":546,"o":"m 538 0 l 413 0 l 274 233 l 138 31 l 11 -47 l 215 332 l 22 654 l 150 654 l 281 429 l 413 654 l 546 710 l 340 332 l 538 0 z "},"y":{"ha":724,"x_min":78,"x_max":628,"o":"m 628 36 q 561 -208 628 -118 q 339 -311 486 -311 q 78 -78 149 -311 l 203 -164 q 338 -208 226 -219 q 488 -118 451 -208 q 513 79 513 -60 q 311 -17 438 -17 q 179 22 232 -17 q 101 140 115 65 q 96 224 96 171 l 96 621 l 206 713 l 206 281 q 222 144 206 179 q 333 88 250 88 q 518 368 521 88 l 518 621 l 628 713 l 628 36 z "},"z":{"ha":579,"x_min":35,"x_max":546,"o":"m 546 0 l 35 0 l 35 92 l 400 558 l 114 558 l 42 654 l 538 654 l 538 565 l 169 92 l 474 92 l 546 0 z "},"{":{"ha":421,"x_min":61,"x_max":425,"o":"m 425 -197 l 268 -153 q 179 18 179 -132 l 179 293 q 157 388 179 364 q 61 447 150 394 l 61 461 q 157 535 122 494 q 179 629 179 558 l 179 904 q 193 1008 179 972 q 268 1075 213 1058 q 422 1126 271 1076 l 378 1039 q 310 999 317 1006 q 288 904 288 975 l 288 629 q 207 461 288 493 q 288 293 288 429 l 288 18 q 310 -76 288 -53 q 378 -117 317 -83 l 425 -197 z "},"|":{"ha":318,"x_min":103,"x_max":214,"o":"m 214 -347 l 103 -347 l 103 1042 l 214 1042 l 214 -347 z "},"}":{"ha":442,"x_min":7,"x_max":385,"o":"m 379 458 q 282 388 278 394 q 260 293 260 364 l 260 18 q 246 -86 260 -50 q 171 -153 226 -136 q 7 -197 168 -154 l 61 -117 q 129 -76 122 -83 q 151 18 151 -53 l 151 293 q 232 461 151 429 q 151 629 151 493 l 151 904 q 129 999 151 975 q 61 1039 122 1006 l 7 1111 l 171 1075 q 260 904 260 1054 l 260 629 q 282 535 260 558 q 385 474 289 528 l 379 458 z "},"~":{"ha":769,"x_min":19,"x_max":743,"o":"m 714 535 q 538 435 628 424 q 384 483 490 435 q 233 521 278 532 q 157 492 190 521 q 101 439 147 483 l 19 336 l 46 526 q 217 635 124 643 q 377 587 264 635 q 528 547 490 539 q 661 625 596 547 l 743 722 l 714 535 z "},"‚":{"ha":318,"x_min":83,"x_max":225,"o":"m 225 76 q 181 -175 225 -86 l 103 -175 q 147 0 143 -82 q 101 25 119 3 q 83 76 83 47 q 103 130 83 107 q 154 153 124 153 q 205 130 185 153 q 225 76 225 107 z "},"ƒ":{"ha":607,"x_min":19,"x_max":588,"o":"m 588 1029 l 563 911 q 431 707 463 864 l 415 632 l 538 632 l 538 521 l 393 521 l 282 -18 q 19 -326 228 -279 l 44 -208 q 176 -4 144 -161 l 285 521 l 200 521 l 200 632 l 307 632 l 325 721 q 588 1029 378 982 z "},"„":{"ha":521,"x_min":83,"x_max":433,"o":"m 433 76 q 389 -175 433 -86 l 311 -175 q 356 0 351 -82 q 310 25 328 3 q 292 76 292 47 q 312 130 292 107 q 363 153 332 153 q 413 130 393 153 q 433 76 433 107 m 225 76 q 181 -175 225 -86 l 103 -175 q 147 0 143 -82 q 101 25 119 3 q 83 76 83 47 q 103 130 83 107 q 154 153 124 153 q 205 130 185 153 q 225 76 225 107 z "},"…":{"ha":1193,"x_min":121,"x_max":1044,"o":"m 1044 76 q 1026 23 1044 46 q 978 0 1007 0 q 931 24 949 0 q 913 76 913 47 q 931 129 913 106 q 978 153 949 153 q 1026 130 1007 153 q 1044 76 1044 107 m 642 76 q 623 23 642 46 q 575 0 604 0 q 528 24 546 0 q 510 76 510 47 q 528 129 510 106 q 575 153 546 153 q 623 130 604 153 q 642 76 642 107 m 253 76 q 234 23 253 46 q 186 0 215 0 q 139 24 157 0 q 121 76 121 47 q 139 129 121 106 q 186 153 157 153 q 234 130 215 153 q 253 76 253 107 z "},"†":{"ha":636,"x_min":49,"x_max":589,"o":"m 589 692 l 482 692 l 376 724 l 376 -42 l 265 -42 l 265 724 l 156 692 l 49 692 l 49 801 l 157 801 l 265 769 l 265 981 l 376 981 l 376 769 l 481 801 l 589 801 l 589 692 z "},"‡":{"ha":636,"x_min":49,"x_max":589,"o":"m 589 108 l 482 108 l 376 140 l 376 -42 l 265 -42 l 265 140 l 156 108 l 49 108 l 49 218 l 157 218 l 265 186 l 265 724 l 156 692 l 49 692 l 49 801 l 157 801 l 265 769 l 265 981 l 376 981 l 376 769 l 481 801 l 589 801 l 589 692 l 482 692 l 376 724 l 376 186 l 481 218 l 589 218 l 589 108 z "},"ˆ":{"ha":376,"x_min":15,"x_max":358,"o":"m 358 726 l 310 726 l 183 858 l 60 726 l 15 726 l 15 804 l 135 936 l 228 936 l 358 807 l 358 726 z "},"‰":{"ha":1660,"x_min":25,"x_max":1611,"o":"m 1611 313 q 1394 -6 1611 -6 q 1176 307 1176 -6 q 1399 632 1176 632 q 1611 313 1611 632 m 1125 313 q 910 -6 1125 -6 q 692 307 692 -6 q 913 632 692 632 q 1125 313 1125 632 m 829 949 l 415 0 l 325 0 l 729 947 l 829 949 m 458 631 q 243 311 458 311 q 25 625 25 311 q 246 949 25 949 q 458 631 458 949 m 1511 325 q 1500 481 1511 446 q 1400 546 1479 546 q 1289 475 1314 546 q 1275 306 1275 435 q 1289 146 1275 185 q 1393 79 1313 79 q 1501 156 1479 79 q 1511 325 1511 189 m 1026 325 q 1014 481 1026 442 q 915 546 993 546 q 804 475 829 546 q 790 306 790 435 q 804 146 790 185 q 908 79 828 79 q 1015 156 993 79 q 1026 325 1026 193 m 360 643 q 349 797 360 764 q 249 864 326 864 q 138 793 163 864 q 124 624 124 753 q 138 464 124 504 q 242 396 161 396 q 350 472 329 396 q 360 643 360 507 z "},"Š":{"ha":926,"x_min":56,"x_max":858,"o":"m 858 282 q 735 46 858 128 q 467 -25 629 -25 q 199 42 303 -25 q 56 271 81 117 l 199 271 q 296 122 218 172 q 472 76 367 76 q 640 122 574 76 q 717 272 717 175 q 531 436 717 399 l 449 453 q 221 528 296 483 q 99 732 99 600 q 213 940 99 865 q 451 1006 311 1006 q 836 736 778 1006 l 706 736 q 456 904 674 904 q 308 871 368 904 q 233 750 233 831 q 299 642 233 681 q 426 597 333 621 l 535 569 q 689 526 592 554 q 858 282 858 456 m 635 1185 l 504 1056 l 411 1056 l 292 1188 l 292 1265 l 336 1265 l 460 1133 l 586 1265 l 635 1265 l 635 1185 z "},"‹":{"ha":361,"x_min":72,"x_max":282,"o":"m 282 238 l 204 238 l 72 357 l 72 450 l 201 581 l 282 581 l 282 532 l 150 406 l 282 282 l 282 238 z "},"Œ":{"ha":1435,"x_min":85,"x_max":1357,"o":"m 1357 0 l 747 0 l 747 71 q 494 -7 656 -7 q 85 490 85 -7 q 499 988 85 988 q 747 910 656 988 l 747 981 l 1340 981 l 1340 865 l 874 865 l 874 563 l 1254 563 l 1254 447 l 874 447 l 874 114 l 1357 114 l 1357 0 m 747 357 l 747 622 q 499 881 747 881 q 265 760 332 881 q 215 489 215 669 q 267 218 215 311 q 499 97 335 97 q 747 357 747 97 z "},"‘":{"ha":318,"x_min":83,"x_max":225,"o":"m 225 731 q 205 677 225 700 q 154 654 185 654 q 103 677 124 654 q 83 731 83 700 q 128 982 83 893 l 206 982 q 161 807 165 889 q 208 782 190 804 q 225 731 225 760 z "},"’":{"ha":318,"x_min":83,"x_max":225,"o":"m 225 906 q 181 654 225 743 l 103 654 q 147 829 142 742 q 101 854 118 832 q 83 906 83 876 q 103 959 83 936 q 154 982 124 982 q 205 959 185 982 q 225 906 225 936 z "},"“":{"ha":521,"x_min":83,"x_max":447,"o":"m 447 731 q 427 677 447 700 q 376 654 407 654 q 326 677 346 654 q 306 731 306 700 q 350 982 306 893 l 428 982 q 383 807 388 889 q 430 782 413 804 q 447 731 447 760 m 225 731 q 205 677 225 700 q 154 654 185 654 q 103 677 124 654 q 83 731 83 700 q 128 982 83 893 l 206 982 q 161 807 165 889 q 208 782 190 804 q 225 731 225 760 z "},"”":{"ha":521,"x_min":83,"x_max":433,"o":"m 433 906 q 389 654 433 743 l 311 654 q 356 829 350 742 q 309 854 326 832 q 292 906 292 876 q 312 959 292 936 q 363 982 332 982 q 413 959 393 982 q 433 906 433 936 m 225 906 q 181 654 225 743 l 103 654 q 147 829 142 742 q 101 854 118 832 q 83 906 83 876 q 103 959 83 936 q 154 982 124 982 q 205 959 185 982 q 225 906 225 936 z "},"•":{"ha":408,"x_min":57,"x_max":335,"o":"m 335 407 q 293 313 335 351 q 196 275 251 275 q 98 313 139 275 q 57 407 57 350 q 98 501 57 464 q 196 538 139 538 q 293 500 251 538 q 335 407 335 463 z "},"–":{"ha":725,"x_min":-7,"x_max":724,"o":"m 724 368 l -7 368 l -7 478 l 724 478 l 724 368 z "},"—":{"ha":807,"x_min":-7,"x_max":808,"o":"m 808 368 l -7 368 l -7 478 l 808 478 l 808 368 z "},"˜":{"ha":376,"x_min":14,"x_max":360,"o":"m 360 807 q 267 725 314 725 q 186 760 249 725 q 113 794 124 794 q 63 753 88 794 q 47 728 58 746 l 14 728 l 14 801 q 104 888 54 888 q 190 853 126 888 q 261 819 254 819 q 326 881 294 819 l 358 881 l 360 807 z "},"™":{"ha":750,"x_min":39,"x_max":686,"o":"m 686 622 l 636 622 l 635 881 l 638 894 l 535 622 l 496 622 l 396 882 l 396 622 l 346 622 l 346 976 l 410 976 l 515 693 l 622 976 l 686 976 l 686 622 m 300 932 l 196 932 l 196 622 l 144 622 l 144 932 l 39 932 l 39 976 l 300 976 l 300 932 z "},"š":{"ha":665,"x_min":56,"x_max":614,"o":"m 614 186 q 524 28 614 85 q 344 -21 447 -21 q 56 226 83 -21 l 179 168 q 350 64 193 42 q 499 172 504 64 q 454 249 499 224 q 368 276 428 264 l 306 289 q 157 340 196 311 q 79 479 79 389 q 160 629 79 578 q 324 674 228 674 q 497 626 431 674 q 596 456 576 575 l 476 514 q 311 589 456 589 q 233 567 261 589 q 190 493 190 540 q 236 426 190 451 q 339 390 265 410 l 401 375 q 533 325 494 353 q 614 186 614 275 m 508 856 l 378 726 l 285 726 l 165 858 l 165 936 l 210 936 l 333 804 l 460 936 l 508 936 l 508 856 z "},"›":{"ha":361,"x_min":72,"x_max":282,"o":"m 282 357 l 150 238 l 72 238 l 72 282 l 204 406 l 72 532 l 72 581 l 153 581 l 282 450 l 282 357 z "},"œ":{"ha":1254,"x_min":56,"x_max":1213,"o":"m 1213 310 l 715 310 l 715 300 q 769 133 715 199 q 926 64 826 64 q 1092 185 1051 64 l 1207 185 q 917 -19 1128 -19 q 647 124 732 -19 q 378 -19 561 -19 q 140 78 228 -19 q 56 322 56 171 q 140 574 56 478 q 382 675 229 675 q 647 532 561 675 q 913 675 735 675 q 1144 565 1067 675 q 1213 310 1213 469 m 1092 403 q 904 576 1081 576 q 718 403 735 576 l 1092 403 m 590 342 q 542 514 590 449 q 385 586 489 586 q 214 507 272 586 q 163 321 163 438 q 213 143 163 208 q 376 69 268 69 q 543 154 488 69 q 590 342 590 225 z "},"Ÿ":{"ha":868,"x_min":18,"x_max":849,"o":"m 619 1167 q 601 1113 619 1136 q 553 1090 582 1090 q 504 1113 522 1090 q 486 1167 486 1136 q 505 1220 486 1197 q 553 1243 524 1243 q 601 1219 582 1243 q 619 1167 619 1196 m 383 1167 q 365 1113 383 1136 q 317 1090 346 1090 q 268 1113 286 1090 q 250 1167 250 1136 q 269 1220 250 1197 q 317 1243 288 1243 q 365 1219 346 1243 q 383 1167 383 1196 m 849 981 l 496 449 l 496 0 l 364 0 l 364 449 l 18 981 l 174 981 l 431 565 l 693 981 l 849 981 z "},"¡":{"ha":376,"x_min":104,"x_max":214,"o":"m 214 779 q 199 735 214 754 q 160 717 183 717 q 119 735 135 717 q 104 779 104 754 q 119 823 104 804 q 160 842 135 842 q 199 823 183 842 q 214 779 214 804 m 214 -139 l 104 -139 l 104 385 l 138 638 l 181 638 l 214 386 l 214 -139 z "},"¢":{"ha":724,"x_min":54,"x_max":683,"o":"m 683 218 q 649 125 672 169 q 421 -18 579 -4 l 421 -139 l 314 -139 l 314 -14 q 118 100 186 6 q 54 321 54 188 q 117 550 54 457 q 314 671 185 653 l 314 772 l 421 772 l 421 672 q 671 468 619 653 l 547 468 q 421 590 521 572 l 421 68 q 561 218 533 86 l 683 218 m 314 75 l 314 586 q 176 329 176 544 q 314 75 176 122 z "},"£":{"ha":926,"x_min":81,"x_max":833,"o":"m 833 199 q 775 42 833 88 q 608 0 722 0 l 104 0 l 104 108 l 106 110 l 104 110 q 204 342 204 215 q 199 404 204 372 l 81 404 l 81 515 l 168 515 q 106 732 104 689 q 221 942 111 868 q 458 1006 315 1006 q 688 942 606 1006 q 801 736 769 879 l 671 736 q 607 867 654 831 q 463 904 560 904 q 315 871 375 904 q 240 750 243 831 q 258 629 238 688 q 303 515 260 626 l 607 515 l 607 404 l 336 404 q 340 351 340 378 q 253 108 340 238 l 594 108 q 679 124 654 108 q 715 199 711 143 l 833 199 z "},"¤":{"ha":765,"x_min":104,"x_max":693,"o":"m 693 372 l 615 293 l 553 356 q 396 307 482 307 q 240 353 311 307 l 183 296 l 104 374 l 161 431 q 110 592 110 503 q 158 750 110 679 l 104 804 l 183 882 l 239 826 q 386 868 306 868 q 549 818 475 868 l 615 885 l 693 806 l 625 738 q 672 582 672 667 q 629 436 672 503 l 693 372 m 574 585 q 519 715 574 661 q 388 769 464 769 q 260 717 313 769 q 208 590 208 665 q 215 526 208 547 q 263 460 225 499 q 394 404 317 404 q 522 457 469 404 q 574 585 574 510 z "},"¥":{"ha":868,"x_min":18,"x_max":849,"o":"m 849 981 l 568 557 l 753 557 l 753 446 l 496 446 l 496 335 l 753 335 l 753 224 l 496 224 l 496 0 l 364 0 l 364 224 l 101 224 l 101 335 l 364 335 l 364 446 l 101 446 l 101 557 l 293 557 l 18 981 l 174 981 l 431 565 l 693 981 l 849 981 z "},"¦":{"ha":318,"x_min":103,"x_max":214,"o":"m 214 451 l 103 451 l 103 938 l 214 938 l 214 451 m 214 -243 l 103 -243 l 103 243 l 214 243 l 214 -243 z "},"§":{"ha":868,"x_min":138,"x_max":782,"o":"m 782 83 q 685 -107 782 -37 q 472 -169 599 -169 q 138 89 178 -169 l 276 89 q 479 -65 292 -65 q 653 67 653 -65 q 603 160 653 129 q 499 194 572 179 l 428 210 q 251 272 304 236 q 164 443 164 332 q 254 626 164 558 l 260 631 q 138 818 138 690 q 235 1010 138 940 q 447 1072 321 1072 q 782 813 742 1072 l 643 813 q 440 968 628 968 q 267 835 267 968 q 317 742 267 772 q 421 708 344 725 l 492 693 q 668 629 611 668 q 756 460 756 571 q 665 276 756 344 l 660 272 q 782 83 782 213 m 631 443 q 579 524 631 493 q 453 568 547 542 l 422 576 q 331 544 368 574 q 289 460 289 513 q 340 378 289 408 q 465 333 375 357 l 497 325 q 589 357 554 329 q 631 443 631 389 z "},"¨":{"ha":376,"x_min":3,"x_max":372,"o":"m 372 817 q 353 763 372 786 q 306 740 335 740 q 258 763 276 740 q 239 817 239 786 q 258 870 239 847 q 306 893 276 893 q 353 870 335 893 q 372 817 372 847 m 136 817 q 117 763 136 786 q 69 740 99 740 q 22 763 40 740 q 3 817 3 786 q 22 870 3 847 q 69 893 40 893 q 117 870 99 893 q 136 817 136 847 z "},"©":{"ha":707,"x_min":60,"x_max":654,"o":"m 654 697 q 570 485 654 568 q 356 401 486 401 q 144 485 228 401 q 60 699 60 569 q 144 912 60 828 q 358 996 228 996 q 571 912 488 996 q 654 697 654 828 m 604 699 q 535 876 606 806 q 358 946 465 946 q 181 875 251 946 q 110 697 110 804 q 181 521 110 590 q 358 451 251 451 q 535 521 467 451 q 604 699 603 590 m 507 632 q 354 513 468 513 q 236 569 278 513 q 199 699 199 619 q 239 829 199 779 q 361 885 283 885 q 499 794 460 885 l 447 794 q 360 843 417 843 q 274 799 303 843 q 249 701 249 761 q 274 603 249 642 q 360 556 303 556 q 457 632 433 556 l 507 632 z "},"ª":{"ha":435,"x_min":36,"x_max":392,"o":"m 392 556 l 322 556 l 322 592 q 181 544 278 544 q 81 575 121 544 q 36 667 36 608 q 110 782 36 743 q 253 814 169 814 q 319 831 296 814 l 319 840 q 218 932 319 932 q 124 856 124 932 l 49 856 q 215 996 64 996 q 386 894 364 996 q 392 815 392 869 l 392 556 m 321 772 q 253 753 308 761 q 161 731 186 742 q 117 668 117 710 q 196 606 117 606 q 300 654 272 606 q 321 772 321 690 z "},"«":{"ha":568,"x_min":72,"x_max":504,"o":"m 504 238 l 426 238 l 294 357 l 294 450 l 424 581 l 504 581 l 504 532 l 372 406 l 504 282 l 504 238 m 282 238 l 204 238 l 72 357 l 72 450 l 201 581 l 282 581 l 282 532 l 150 406 l 282 282 l 282 238 z "},"¬":{"ha":767,"x_min":60,"x_max":669,"o":"m 669 178 l 557 178 l 557 349 l 60 349 l 60 460 l 669 460 l 669 178 z "},"­":{"ha":767,"x_min":60,"x_max":669,"o":"m 669 349 l 60 349 l 60 460 l 669 460 l 669 349 z "},"®":{"ha":713,"x_min":60,"x_max":654,"o":"m 654 697 q 570 485 654 568 q 356 401 486 401 q 144 485 228 401 q 60 699 60 569 q 144 912 60 828 q 358 996 228 996 q 571 912 488 996 q 654 697 654 828 m 604 699 q 535 876 606 806 q 358 946 465 946 q 181 875 251 946 q 110 697 110 804 q 181 521 110 590 q 358 451 251 451 q 535 521 467 451 q 604 699 603 590 m 501 771 q 463 690 501 719 q 497 610 497 667 l 497 522 l 446 522 l 446 608 q 397 669 446 661 l 378 669 l 286 671 l 286 522 l 238 522 l 238 875 l 368 875 q 501 771 501 875 m 450 771 q 369 832 450 832 l 286 832 l 286 713 l 376 713 q 450 771 450 713 z "},"¯":{"ha":376,"x_min":-6,"x_max":382,"o":"m 382 771 l -6 771 l -6 882 l 382 882 l 382 771 z "},"°":{"ha":492,"x_min":38,"x_max":450,"o":"m 450 829 q 394 676 450 735 q 243 617 338 617 q 94 676 151 617 q 38 826 38 735 q 94 978 38 919 q 244 1036 151 1036 q 392 978 335 1036 q 450 829 450 919 m 332 829 q 244 925 332 925 q 156 825 156 925 q 179 754 156 782 q 244 726 203 726 q 332 829 332 726 z "},"±":{"ha":926,"x_min":157,"x_max":768,"o":"m 768 349 l 517 349 l 517 113 l 767 113 l 767 1 l 157 1 l 157 113 l 406 113 l 406 349 l 157 349 l 157 460 l 406 460 l 406 708 l 517 708 l 517 460 l 768 460 l 768 349 z "},"²":{"ha":521,"x_min":68,"x_max":468,"o":"m 468 335 l 69 335 l 69 413 q 161 538 69 465 q 297 638 207 571 q 376 761 376 697 q 263 878 376 878 q 147 758 147 878 l 68 758 q 121 899 68 849 q 264 949 174 949 q 406 896 350 949 q 461 757 461 843 q 382 614 461 690 q 236 497 361 593 q 157 404 157 436 l 468 404 l 468 335 z "},"³":{"ha":521,"x_min":44,"x_max":478,"o":"m 478 506 q 413 371 478 418 q 265 329 356 329 q 44 536 50 329 l 126 536 q 160 432 131 464 q 260 400 189 400 q 392 510 392 400 q 244 617 392 617 l 244 682 q 378 779 378 682 q 342 856 378 829 q 256 882 307 882 q 128 744 138 882 l 47 744 q 51 794 49 757 q 122 911 58 869 q 257 949 179 949 q 397 907 342 949 q 460 779 460 861 q 385 651 460 696 q 478 506 478 604 z "},"´":{"ha":376,"x_min":99,"x_max":292,"o":"m 292 924 l 235 789 l 165 724 l 99 724 l 169 924 l 292 924 z "},"µ":{"ha":724,"x_min":90,"x_max":633,"o":"m 633 -89 l 582 -89 q 485 -7 526 -64 q 410 -17 450 -17 q 200 72 267 -17 l 200 -292 l 90 -292 l 90 654 l 200 654 l 200 368 q 388 88 200 88 q 504 144 476 88 q 521 281 521 179 l 521 654 l 631 654 l 631 271 q 625 140 631 169 q 592 64 617 96 q 633 -89 585 28 z "},"¶":{"ha":825,"x_min":28,"x_max":763,"o":"m 763 892 l 701 892 l 701 -231 l 579 -231 l 579 892 l 461 892 l 461 -231 l 340 -231 l 340 407 l 332 407 q 115 493 203 407 q 28 708 28 579 q 89 892 28 813 q 250 997 150 971 q 332 1008 279 1008 l 763 1008 l 763 892 z "},"·":{"ha":318,"x_min":93,"x_max":225,"o":"m 225 396 q 206 342 225 365 q 158 319 188 319 q 111 343 129 319 q 93 396 93 367 q 111 449 93 425 q 158 472 129 472 q 206 449 188 472 q 225 396 225 426 z "},"¸":{"ha":376,"x_min":64,"x_max":308,"o":"m 308 -160 q 167 -278 308 -278 q 64 -267 122 -278 l 64 -218 q 133 -226 103 -226 q 219 -183 219 -226 q 190 -131 219 -131 l 90 -131 l 118 25 l 179 25 l 165 -61 l 226 -60 q 289 -90 267 -58 q 308 -160 308 -117 z "},"¹":{"ha":521,"x_min":126,"x_max":324,"o":"m 324 342 l 239 342 l 239 804 l 126 804 l 126 843 l 281 950 l 324 950 l 324 342 z "},"º":{"ha":463,"x_min":46,"x_max":429,"o":"m 429 782 q 236 582 429 582 q 95 634 144 582 q 46 778 46 686 q 95 930 46 872 q 238 988 144 988 q 378 931 328 988 q 429 782 429 874 m 340 782 q 238 908 340 908 q 133 778 133 908 q 238 661 133 661 q 340 782 340 661 z "},"»":{"ha":568,"x_min":72,"x_max":504,"o":"m 504 357 l 372 238 l 294 238 l 294 282 l 426 406 l 294 532 l 294 581 l 375 581 l 504 450 l 504 357 m 282 357 l 150 238 l 72 238 l 72 282 l 204 406 l 72 532 l 72 581 l 153 581 l 282 450 l 282 357 z "},"¼":{"ha":1186,"x_min":99,"x_max":1138,"o":"m 1138 146 l 1067 146 l 1067 0 l 988 0 l 988 146 l 713 146 l 713 228 l 994 608 l 1067 608 l 1067 215 l 1138 215 l 1138 146 m 850 949 l 413 0 l 317 0 l 744 947 l 850 949 m 296 342 l 211 342 l 211 804 l 99 804 l 99 843 l 253 950 l 296 950 l 296 342 m 988 215 l 988 481 l 794 215 l 988 215 z "},"½":{"ha":1254,"x_min":99,"x_max":1186,"o":"m 1186 0 l 788 0 l 788 78 q 879 203 788 131 q 1015 303 925 236 q 1094 426 1094 363 q 981 543 1094 543 q 865 424 865 543 l 786 424 q 839 564 786 514 q 982 614 892 614 q 1124 561 1068 614 q 1179 422 1179 508 q 1100 279 1179 356 q 954 163 1079 258 q 875 69 875 101 l 1186 69 l 1186 0 m 850 949 l 413 0 l 317 0 l 744 947 l 850 949 m 296 342 l 211 342 l 211 804 l 99 804 l 99 843 l 253 950 l 296 950 l 296 342 z "},"¾":{"ha":1271,"x_min":44,"x_max":1207,"o":"m 1207 146 l 1136 146 l 1136 0 l 1057 0 l 1057 146 l 782 146 l 782 228 l 1064 608 l 1136 608 l 1136 215 l 1207 215 l 1207 146 m 919 949 l 482 0 l 386 0 l 814 947 l 919 949 m 478 506 q 413 371 478 418 q 265 329 356 329 q 44 536 50 329 l 126 536 q 160 432 131 464 q 260 400 189 400 q 392 510 392 400 q 244 617 392 617 l 244 682 q 378 779 378 682 q 342 856 378 829 q 256 882 307 882 q 128 744 138 882 l 47 744 q 51 794 49 757 q 122 911 58 869 q 257 949 179 949 q 397 907 342 949 q 460 779 460 861 q 385 651 460 696 q 478 506 478 604 m 1057 215 l 1057 481 l 864 215 l 1057 215 z "},"¿":{"ha":781,"x_min":57,"x_max":692,"o":"m 429 788 q 414 744 429 763 q 375 725 399 725 q 335 744 350 725 q 319 788 319 763 q 335 831 319 813 q 375 850 350 850 q 414 831 399 850 q 429 788 429 813 m 688 199 q 578 -69 692 19 q 376 -136 493 -136 q 151 -54 242 -136 q 57 164 57 31 q 118 311 57 244 q 254 400 174 372 q 319 517 319 422 l 319 644 l 429 644 l 429 497 q 383 363 429 406 q 251 289 353 333 q 171 149 171 253 q 235 15 171 67 q 378 -32 293 -32 q 567 199 574 -32 l 688 199 z "},"À":{"ha":897,"x_min":15,"x_max":882,"o":"m 882 0 l 744 0 l 638 300 l 264 300 l 154 0 l 15 0 l 389 981 l 525 981 l 882 0 m 599 410 l 456 818 l 306 410 l 599 410 m 546 1063 l 479 1063 l 410 1128 l 353 1263 l 475 1263 l 546 1063 z "},"Á":{"ha":897,"x_min":15,"x_max":882,"o":"m 882 0 l 744 0 l 638 300 l 264 300 l 154 0 l 15 0 l 389 981 l 525 981 l 882 0 m 599 410 l 456 818 l 306 410 l 599 410 m 424 1263 l 546 1263 l 489 1128 l 419 1063 l 353 1063 l 424 1263 z "},"Ã":{"ha":897,"x_min":15,"x_max":882,"o":"m 882 0 l 744 0 l 638 300 l 264 300 l 154 0 l 15 0 l 389 981 l 525 981 l 882 0 m 599 410 l 456 818 l 306 410 l 599 410 m 622 1154 q 529 1072 576 1072 q 449 1107 511 1072 q 375 1142 386 1142 q 325 1100 349 1142 q 310 1075 322 1094 l 276 1075 l 276 1149 q 367 1235 315 1235 q 452 1201 389 1235 q 524 1167 515 1167 q 589 1228 557 1167 l 621 1228 l 622 1154 z "},"Ä":{"ha":897,"x_min":15,"x_max":882,"o":"m 882 0 l 744 0 l 638 300 l 264 300 l 154 0 l 15 0 l 389 981 l 525 981 l 882 0 m 599 410 l 456 818 l 306 410 l 599 410 m 633 1157 q 615 1103 633 1126 q 567 1081 596 1081 q 519 1103 538 1081 q 500 1157 500 1126 q 519 1210 500 1188 q 567 1233 538 1233 q 615 1210 596 1233 q 633 1157 633 1188 m 397 1157 q 378 1103 397 1126 q 331 1081 360 1081 q 283 1103 301 1081 q 264 1157 264 1126 q 283 1210 264 1188 q 331 1233 301 1233 q 378 1210 360 1233 q 397 1157 397 1188 z "},"Å":{"ha":897,"x_min":15,"x_max":882,"o":"m 882 0 l 744 0 l 638 300 l 264 300 l 154 0 l 15 0 l 389 981 l 525 981 l 882 0 m 599 410 l 456 818 l 306 410 l 599 410 m 604 1174 q 447 1039 604 1039 q 293 1171 293 1039 q 336 1275 293 1239 q 449 1311 379 1311 q 558 1278 517 1311 q 604 1174 604 1240 m 532 1174 q 449 1258 532 1258 q 364 1171 364 1258 q 449 1092 364 1092 q 532 1174 532 1092 z "},"Æ":{"ha":1444,"x_min":0,"x_max":1413,"o":"m 747 810 l 454 410 l 747 410 l 747 810 m 1413 0 l 743 0 l 746 300 l 372 300 l 153 0 l 0 0 l 732 981 l 1396 981 l 1396 865 l 882 865 l 882 563 l 1310 563 l 1310 447 l 882 447 l 881 114 l 1413 114 l 1413 0 z "},"Ç":{"ha":971,"x_min":58,"x_max":913,"o":"m 913 296 q 768 74 868 158 q 524 -24 664 -15 l 518 -61 l 579 -60 q 660 -160 660 -58 q 518 -278 660 -278 q 417 -267 475 -278 l 417 -218 q 485 -226 454 -226 q 572 -183 572 -226 q 542 -131 572 -131 l 442 -131 l 461 -24 q 154 144 263 -12 q 58 490 58 282 q 169 853 58 714 q 508 1006 290 1006 q 890 764 785 1006 l 756 764 q 507 901 669 901 q 261 775 344 901 q 189 497 189 667 q 260 215 189 326 q 506 83 343 83 q 680 140 607 83 q 783 296 753 197 l 913 296 z "},"È":{"ha":839,"x_min":108,"x_max":801,"o":"m 801 0 l 108 0 l 108 981 l 785 981 l 785 865 l 235 865 l 235 563 l 699 563 l 699 447 l 235 447 l 235 114 l 801 114 l 801 0 m 517 1063 l 450 1063 l 381 1128 l 324 1263 l 446 1263 l 517 1063 z "},"É":{"ha":839,"x_min":108,"x_max":801,"o":"m 801 0 l 108 0 l 108 981 l 785 981 l 785 865 l 235 865 l 235 563 l 699 563 l 699 447 l 235 447 l 235 114 l 801 114 l 801 0 m 394 1263 l 517 1263 l 460 1128 l 390 1063 l 324 1063 l 394 1263 z "},"Ê":{"ha":839,"x_min":108,"x_max":801,"o":"m 801 0 l 108 0 l 108 981 l 785 981 l 785 865 l 235 865 l 235 563 l 699 563 l 699 447 l 235 447 l 235 114 l 801 114 l 801 0 m 592 1056 l 543 1056 l 417 1188 l 293 1056 l 249 1056 l 249 1133 l 368 1265 l 461 1265 l 592 1136 l 592 1056 z "},"Ë":{"ha":839,"x_min":108,"x_max":801,"o":"m 801 0 l 108 0 l 108 981 l 785 981 l 785 865 l 235 865 l 235 563 l 699 563 l 699 447 l 235 447 l 235 114 l 801 114 l 801 0 m 604 1157 q 585 1103 604 1126 q 538 1081 567 1081 q 490 1103 508 1081 q 471 1157 471 1126 q 490 1210 471 1188 q 538 1233 508 1233 q 585 1210 567 1233 q 604 1157 604 1188 m 368 1157 q 349 1103 368 1126 q 301 1081 331 1081 q 253 1103 272 1081 q 235 1157 235 1126 q 253 1210 235 1188 q 301 1233 272 1233 q 349 1210 331 1233 q 368 1157 368 1188 z "},"Ì":{"ha":318,"x_min":63,"x_max":256,"o":"m 225 0 l 93 0 l 93 981 l 225 981 l 225 0 m 256 1063 l 189 1063 l 119 1128 l 63 1263 l 185 1263 l 256 1063 z "},"Í":{"ha":318,"x_min":63,"x_max":256,"o":"m 225 0 l 93 0 l 93 981 l 225 981 l 225 0 m 133 1263 l 256 1263 l 199 1128 l 129 1063 l 63 1063 l 133 1263 z "},"Î":{"ha":318,"x_min":-12,"x_max":331,"o":"m 225 0 l 93 0 l 93 981 l 225 981 l 225 0 m 331 1056 l 282 1056 l 156 1188 l 32 1056 l -12 1056 l -12 1133 l 107 1265 l 200 1265 l 331 1136 l 331 1056 z "},"Ï":{"ha":318,"x_min":-26,"x_max":344,"o":"m 225 0 l 93 0 l 93 981 l 225 981 l 225 0 m 344 1157 q 326 1103 344 1126 q 278 1081 307 1081 q 229 1103 247 1081 q 211 1157 211 1126 q 229 1210 211 1188 q 278 1233 247 1233 q 326 1210 307 1233 q 344 1157 344 1188 m 108 1157 q 90 1103 108 1126 q 42 1081 71 1081 q -8 1103 11 1081 q -26 1157 -26 1126 q -8 1210 -26 1188 q 42 1233 11 1233 q 90 1210 71 1233 q 108 1157 108 1188 z "},"Ð":{"ha":938,"x_min":18,"x_max":872,"o":"m 108 432 l 18 432 l 18 543 l 108 543 l 108 981 l 443 981 q 599 965 536 981 q 872 490 872 899 q 474 0 872 0 l 108 0 l 108 432 m 419 432 l 242 432 l 242 113 l 443 113 q 682 222 611 113 q 739 489 739 311 q 678 763 739 676 q 424 865 604 865 l 242 865 l 242 543 l 419 543 l 419 432 z "},"Ñ":{"ha":983,"x_min":108,"x_max":875,"o":"m 875 0 l 757 0 l 219 797 l 231 750 l 231 0 l 108 0 l 108 981 l 231 981 l 763 194 l 757 244 l 757 981 l 875 981 l 875 0 m 665 1154 q 572 1072 619 1072 q 491 1107 553 1072 q 418 1142 429 1142 q 368 1100 392 1142 q 353 1075 365 1094 l 319 1075 l 319 1149 q 410 1235 357 1235 q 494 1201 431 1235 q 567 1167 557 1167 q 632 1228 600 1167 l 664 1228 l 665 1154 z "},"Ò":{"ha":1068,"x_min":71,"x_max":979,"o":"m 979 500 q 867 138 979 272 q 522 -7 746 -7 q 183 135 303 -7 q 71 490 71 267 q 185 847 71 715 q 526 988 304 988 q 863 849 740 988 q 979 500 979 717 m 849 499 q 775 768 849 669 q 526 881 692 881 q 275 764 360 881 q 201 489 201 663 q 275 214 201 315 q 526 97 360 97 q 779 218 697 97 q 849 499 849 319 m 631 1063 l 564 1063 l 494 1128 l 438 1263 l 560 1263 l 631 1063 z "},"Ó":{"ha":1068,"x_min":71,"x_max":979,"o":"m 979 500 q 867 138 979 272 q 522 -7 746 -7 q 183 135 303 -7 q 71 490 71 267 q 185 847 71 715 q 526 988 304 988 q 863 849 740 988 q 979 500 979 717 m 849 499 q 775 768 849 669 q 526 881 692 881 q 275 764 360 881 q 201 489 201 663 q 275 214 201 315 q 526 97 360 97 q 779 218 697 97 q 849 499 849 319 m 508 1263 l 631 1263 l 574 1128 l 504 1063 l 438 1063 l 508 1263 z "},"Ô":{"ha":1068,"x_min":71,"x_max":979,"o":"m 979 500 q 867 138 979 272 q 522 -7 746 -7 q 183 135 303 -7 q 71 490 71 267 q 185 847 71 715 q 526 988 304 988 q 863 849 740 988 q 979 500 979 717 m 849 499 q 775 768 849 669 q 526 881 692 881 q 275 764 360 881 q 201 489 201 663 q 275 214 201 315 q 526 97 360 97 q 779 218 697 97 q 849 499 849 319 m 706 1056 l 657 1056 l 531 1188 l 407 1056 l 363 1056 l 363 1133 l 482 1265 l 575 1265 l 706 1136 l 706 1056 z "},"Õ":{"ha":1068,"x_min":71,"x_max":979,"o":"m 979 500 q 867 138 979 272 q 522 -7 746 -7 q 183 135 303 -7 q 71 490 71 267 q 185 847 71 715 q 526 988 304 988 q 863 849 740 988 q 979 500 979 717 m 849 499 q 775 768 849 669 q 526 881 692 881 q 275 764 360 881 q 201 489 201 663 q 275 214 201 315 q 526 97 360 97 q 779 218 697 97 q 849 499 849 319 m 707 1154 q 614 1072 661 1072 q 533 1107 596 1072 q 460 1142 471 1142 q 410 1100 433 1142 q 394 1075 407 1094 l 361 1075 l 361 1149 q 451 1235 400 1235 q 537 1201 474 1235 q 608 1167 600 1167 q 674 1228 642 1167 l 706 1228 l 707 1154 z "},"Ö":{"ha":1068,"x_min":71,"x_max":979,"o":"m 979 500 q 867 138 979 272 q 522 -7 746 -7 q 183 135 303 -7 q 71 490 71 267 q 185 847 71 715 q 526 988 304 988 q 863 849 740 988 q 979 500 979 717 m 849 499 q 775 768 849 669 q 526 881 692 881 q 275 764 360 881 q 201 489 201 663 q 275 214 201 315 q 526 97 360 97 q 779 218 697 97 q 849 499 849 319 m 719 1157 q 701 1103 719 1126 q 653 1081 682 1081 q 604 1103 622 1081 q 586 1157 586 1126 q 604 1210 586 1188 q 653 1233 622 1233 q 701 1210 682 1233 q 719 1157 719 1188 m 483 1157 q 465 1103 483 1126 q 417 1081 446 1081 q 368 1103 386 1081 q 350 1157 350 1126 q 368 1210 350 1188 q 417 1233 386 1233 q 465 1210 446 1233 q 483 1157 483 1188 z "},"×":{"ha":765,"x_min":122,"x_max":633,"o":"m 633 581 l 456 403 l 633 225 l 556 146 l 378 324 l 201 149 l 122 226 l 299 403 l 122 579 l 201 657 l 378 482 l 556 660 l 633 581 z "},"Ø":{"ha":1068,"x_min":71,"x_max":979,"o":"m 307 178 l 614 872 q 526 881 574 881 q 275 764 360 881 q 201 489 201 663 q 307 178 201 281 m 713 829 l 393 121 q 526 97 451 97 q 779 218 697 97 q 849 499 849 319 q 713 829 849 735 m 794 1011 l 758 933 q 863 849 817 900 q 979 500 979 717 q 867 138 979 272 q 522 -7 746 -7 q 347 21 425 -7 l 329 -21 l 219 -21 l 257 67 q 71 490 71 197 q 185 847 71 715 q 526 988 304 988 q 658 972 597 988 l 675 1010 l 794 1011 z "},"Ù":{"ha":956,"x_min":104,"x_max":849,"o":"m 849 328 q 469 -24 849 -24 q 111 203 156 -24 q 104 346 104 239 l 104 982 l 236 982 l 236 364 q 242 239 236 272 q 469 86 267 86 q 668 157 613 86 q 717 367 717 219 l 717 982 l 849 982 l 849 328 m 575 1063 l 508 1063 l 439 1128 l 382 1263 l 504 1263 l 575 1063 z "},"Ú":{"ha":956,"x_min":104,"x_max":849,"o":"m 849 328 q 469 -24 849 -24 q 111 203 156 -24 q 104 346 104 239 l 104 982 l 236 982 l 236 364 q 242 239 236 272 q 469 86 267 86 q 668 157 613 86 q 717 367 717 219 l 717 982 l 849 982 l 849 328 m 453 1263 l 575 1263 l 518 1128 l 449 1063 l 382 1063 l 453 1263 z "},"Û":{"ha":956,"x_min":104,"x_max":849,"o":"m 849 328 q 469 -24 849 -24 q 111 203 156 -24 q 104 346 104 239 l 104 982 l 236 982 l 236 364 q 242 239 236 272 q 469 86 267 86 q 668 157 613 86 q 717 367 717 219 l 717 982 l 849 982 l 849 328 m 650 1056 l 601 1056 l 475 1188 l 351 1056 l 307 1056 l 307 1133 l 426 1265 l 519 1265 l 650 1136 l 650 1056 z "},"Ü":{"ha":956,"x_min":104,"x_max":849,"o":"m 849 328 q 469 -24 849 -24 q 111 203 156 -24 q 104 346 104 239 l 104 982 l 236 982 l 236 364 q 242 239 236 272 q 469 86 267 86 q 668 157 613 86 q 717 367 717 219 l 717 982 l 849 982 l 849 328 m 663 1157 q 644 1103 663 1126 q 596 1081 625 1081 q 548 1103 567 1081 q 529 1157 529 1126 q 548 1210 529 1188 q 596 1233 567 1233 q 644 1210 625 1233 q 663 1157 663 1188 m 426 1157 q 408 1103 426 1126 q 360 1081 389 1081 q 312 1103 331 1081 q 293 1157 293 1126 q 312 1210 293 1188 q 360 1233 331 1233 q 408 1210 389 1233 q 426 1157 426 1188 z "},"Ý":{"ha":868,"x_min":18,"x_max":849,"o":"m 849 981 l 496 449 l 496 0 l 364 0 l 364 449 l 18 981 l 174 981 l 431 565 l 693 981 l 849 981 m 408 1263 l 531 1263 l 474 1128 l 404 1063 l 338 1063 l 408 1263 z "},"Þ":{"ha":868,"x_min":106,"x_max":811,"o":"m 811 524 q 788 367 811 424 q 672 265 756 290 q 529 250 622 250 l 232 250 l 232 0 l 106 0 l 106 981 l 232 981 l 232 788 l 543 788 q 753 732 696 788 q 811 524 811 676 m 682 526 q 658 642 682 614 q 549 675 632 675 l 232 675 l 232 365 l 519 365 q 603 371 575 365 q 674 425 658 382 q 682 526 682 449 z "},"ß":{"ha":753,"x_min":89,"x_max":715,"o":"m 433 17 q 569 81 524 17 q 610 229 610 136 q 435 421 610 421 q 340 442 365 429 q 296 519 297 464 q 457 671 294 646 q 514 778 514 679 q 468 874 514 839 q 364 904 428 904 q 204 790 226 904 q 199 683 199 761 l 199 0 l 89 0 l 89 689 q 100 831 89 783 q 361 1006 142 1006 q 546 953 476 1006 q 625 782 625 893 q 500 590 625 635 q 438 572 468 582 q 394 535 394 558 q 406 511 394 517 q 432 506 410 510 q 640 428 564 506 q 715 218 715 350 q 640 9 715 88 q 435 -69 564 -69 q 368 -62 400 -69 l 368 26 q 433 17 397 17 z "},"à":{"ha":694,"x_min":56,"x_max":583,"o":"m 583 53 l 476 0 l 476 54 q 267 -18 407 -18 q 124 29 175 -18 q 56 169 56 81 q 169 347 56 285 q 376 397 221 375 q 472 438 435 404 l 472 438 l 467 482 q 324 578 446 578 q 190 518 179 578 l 74 460 q 319 676 99 676 q 474 642 413 676 q 575 519 557 600 q 583 399 583 482 l 583 53 m 474 332 q 376 301 454 315 q 247 268 275 286 q 178 172 178 236 q 217 97 178 124 q 290 75 250 75 q 443 150 410 75 q 474 332 474 204 m 451 664 l 364 726 l 294 792 l 221 979 l 360 926 l 451 664 z "},"á":{"ha":694,"x_min":56,"x_max":583,"o":"m 583 53 l 476 0 l 476 54 q 267 -18 407 -18 q 124 29 175 -18 q 56 169 56 81 q 169 347 56 285 q 376 397 221 375 q 472 438 435 404 l 472 438 l 467 482 q 324 578 446 578 q 190 518 179 578 l 74 460 q 319 676 99 676 q 474 642 413 676 q 575 519 557 600 q 583 399 583 482 l 583 53 m 474 332 q 376 301 454 315 q 247 268 275 286 q 178 172 178 236 q 217 97 178 124 q 290 75 250 75 q 443 150 410 75 q 474 332 474 204 m 425 924 l 368 789 l 299 724 l 232 724 l 303 924 l 425 924 z "},"â":{"ha":694,"x_min":56,"x_max":583,"o":"m 583 53 l 476 0 l 476 54 q 267 -18 407 -18 q 124 29 175 -18 q 56 169 56 81 q 169 347 56 285 q 376 397 221 375 q 472 438 435 404 l 472 438 l 467 482 q 324 578 446 578 q 190 518 179 578 l 74 460 q 319 676 99 676 q 474 642 413 676 q 575 519 557 600 q 583 399 583 482 l 583 53 m 474 332 q 376 301 454 315 q 247 268 275 286 q 178 172 178 236 q 217 97 178 124 q 290 75 250 75 q 443 150 410 75 q 474 332 474 204 m 510 726 l 461 726 l 335 858 l 211 726 l 167 726 l 167 804 l 286 936 l 379 936 l 510 807 l 510 726 z "},"ã":{"ha":694,"x_min":56,"x_max":583,"o":"m 583 53 l 476 0 l 476 54 q 267 -18 407 -18 q 124 29 175 -18 q 56 169 56 81 q 169 347 56 285 q 376 397 221 375 q 472 438 435 404 l 472 438 l 467 482 q 324 578 446 578 q 190 518 179 578 l 74 460 q 319 676 99 676 q 474 642 413 676 q 575 519 557 600 q 583 399 583 482 l 583 53 m 474 332 q 376 301 454 315 q 247 268 275 286 q 178 172 178 236 q 217 97 178 124 q 290 75 250 75 q 443 150 410 75 q 474 332 474 204 m 506 807 q 413 725 460 725 q 332 760 394 725 q 258 794 269 794 q 208 753 233 794 q 193 728 204 746 l 160 728 l 160 801 q 250 888 200 888 q 336 853 272 888 q 407 819 400 819 q 472 881 440 819 l 504 881 l 506 807 z "},"ä":{"ha":694,"x_min":56,"x_max":583,"o":"m 583 53 l 476 0 l 476 54 q 267 -18 407 -18 q 124 29 175 -18 q 56 169 56 81 q 169 347 56 285 q 376 397 221 375 q 472 438 435 404 l 472 438 l 467 482 q 324 578 446 578 q 190 518 179 578 l 74 460 q 319 676 99 676 q 474 642 413 676 q 575 519 557 600 q 583 399 583 482 l 583 53 m 474 332 q 376 301 454 315 q 247 268 275 286 q 178 172 178 236 q 217 97 178 124 q 290 75 250 75 q 443 150 410 75 q 474 332 474 204 m 528 817 q 509 763 528 786 q 461 740 490 740 q 413 763 432 740 q 394 817 394 786 q 413 870 394 847 q 461 893 432 893 q 509 870 490 893 q 528 817 528 847 m 292 817 q 273 763 292 786 q 225 740 254 740 q 177 763 196 740 q 158 817 158 786 q 177 870 158 847 q 225 893 196 893 q 273 870 254 893 q 292 817 292 847 z "},"å":{"ha":694,"x_min":56,"x_max":583,"o":"m 583 53 l 476 0 l 476 54 q 267 -18 407 -18 q 124 29 175 -18 q 56 169 56 81 q 169 347 56 285 q 376 397 221 375 q 472 438 435 404 l 472 438 l 467 482 q 324 578 446 578 q 190 518 179 578 l 74 460 q 319 676 99 676 q 474 642 413 676 q 575 519 557 600 q 583 399 583 482 l 583 53 m 474 332 q 376 301 454 315 q 247 268 275 286 q 178 172 178 236 q 217 97 178 124 q 290 75 250 75 q 443 150 410 75 q 474 332 474 204 m 485 849 q 328 714 485 714 q 174 846 174 714 q 217 950 174 914 q 329 986 260 986 q 439 953 397 986 q 485 849 485 915 m 413 849 q 329 933 413 933 q 244 846 244 933 q 329 767 244 767 q 413 849 413 767 z "},"æ":{"ha":1140,"x_min":44,"x_max":1101,"o":"m 482 332 q 376 301 463 315 q 236 268 275 286 q 167 172 167 236 q 206 97 167 124 q 290 75 239 75 q 451 150 410 75 q 482 332 482 204 m 1101 310 l 604 310 l 604 300 q 658 133 604 199 q 815 64 715 64 q 981 185 940 64 l 1096 185 q 806 -19 1017 -19 q 529 136 613 -19 l 485 54 q 267 -18 415 -18 q 113 29 175 -18 q 44 169 44 81 q 158 347 44 285 q 376 397 210 375 q 481 438 435 404 l 475 482 q 324 578 454 578 q 179 460 179 578 l 63 460 q 319 676 88 676 q 563 571 499 676 q 801 675 650 675 q 1033 565 956 675 q 1101 310 1101 469 m 981 403 q 793 576 969 576 q 607 403 624 576 l 981 403 z "},"ç":{"ha":724,"x_min":54,"x_max":683,"o":"m 683 218 q 404 -19 633 -8 l 397 -61 l 458 -60 q 539 -160 539 -58 q 397 -278 539 -278 q 296 -267 354 -278 l 296 -218 q 364 -226 333 -226 q 451 -183 451 -226 q 421 -131 451 -131 l 321 -131 l 342 -18 q 126 89 203 -6 q 54 321 54 178 q 133 572 54 476 q 371 675 218 675 q 671 468 614 675 l 547 468 q 375 581 519 581 q 176 329 176 581 q 224 154 176 219 q 382 79 276 79 q 561 218 531 79 l 683 218 z "},"è":{"ha":724,"x_min":60,"x_max":663,"o":"m 663 310 l 179 310 l 179 300 q 233 133 179 199 q 385 64 290 64 q 542 143 510 64 l 657 215 q 375 -19 589 0 q 140 82 221 -19 q 60 333 60 176 q 142 576 60 483 q 371 675 229 675 q 594 565 525 675 q 663 310 663 469 m 542 403 q 363 576 531 576 q 182 403 193 576 l 542 403 m 471 664 l 383 726 l 314 792 l 240 979 l 379 926 l 471 664 z "},"é":{"ha":724,"x_min":60,"x_max":663,"o":"m 663 310 l 179 310 l 179 300 q 233 133 179 199 q 385 64 290 64 q 542 143 510 64 l 657 215 q 375 -19 589 0 q 140 82 221 -19 q 60 333 60 176 q 142 576 60 483 q 371 675 229 675 q 594 565 525 675 q 663 310 663 469 m 542 403 q 363 576 531 576 q 182 403 193 576 l 542 403 m 481 924 l 424 789 l 354 724 l 288 724 l 358 924 l 481 924 z "},"ê":{"ha":724,"x_min":60,"x_max":663,"o":"m 663 310 l 179 310 l 179 300 q 233 133 179 199 q 385 64 290 64 q 542 143 510 64 l 657 215 q 375 -19 589 0 q 140 82 221 -19 q 60 333 60 176 q 142 576 60 483 q 371 675 229 675 q 594 565 525 675 q 663 310 663 469 m 542 403 q 363 576 531 576 q 182 403 193 576 l 542 403 m 536 726 l 488 726 l 361 858 l 238 726 l 193 726 l 193 804 l 313 936 l 406 936 l 536 807 l 536 726 z "},"ë":{"ha":724,"x_min":60,"x_max":663,"o":"m 663 310 l 179 310 l 179 300 q 233 133 179 199 q 385 64 290 64 q 542 143 510 64 l 657 215 q 375 -19 589 0 q 140 82 221 -19 q 60 333 60 176 q 142 576 60 483 q 371 675 229 675 q 594 565 525 675 q 663 310 663 469 m 542 403 q 363 576 531 576 q 182 403 193 576 l 542 403 m 563 817 q 544 763 563 786 q 496 740 525 740 q 448 763 467 740 q 429 817 429 786 q 448 870 429 847 q 496 893 467 893 q 544 870 525 893 q 563 817 563 847 m 326 817 q 308 763 326 786 q 260 740 289 740 q 212 763 231 740 q 193 817 193 786 q 212 870 193 847 q 260 893 231 893 q 308 870 289 893 q 326 817 326 847 z "},"ì":{"ha":289,"x_min":40,"x_max":271,"o":"m 200 0 l 93 0 l 93 654 l 200 654 l 200 0 m 271 664 l 183 726 l 114 792 l 40 979 l 179 926 l 271 664 z "},"í":{"ha":289,"x_min":65,"x_max":258,"o":"m 200 0 l 93 0 l 93 654 l 200 654 l 200 0 m 258 924 l 201 789 l 132 724 l 65 724 l 136 924 l 258 924 z "},"î":{"ha":289,"x_min":-21,"x_max":322,"o":"m 200 0 l 93 0 l 93 654 l 200 654 l 200 0 m 322 726 l 274 726 l 147 858 l 24 726 l -21 726 l -21 804 l 99 936 l 192 936 l 322 807 l 322 726 z "},"ï":{"ha":289,"x_min":-22,"x_max":347,"o":"m 200 0 l 93 0 l 93 654 l 200 654 l 200 0 m 347 817 q 328 763 347 786 q 281 740 310 740 q 233 763 251 740 q 214 817 214 786 q 233 870 214 847 q 281 893 251 893 q 328 870 310 893 q 347 817 347 847 m 111 817 q 92 763 111 786 q 44 740 74 740 q -3 763 15 740 q -22 817 -22 786 q -3 870 -22 847 q 44 893 15 893 q 92 870 74 893 q 111 817 111 847 z "},"ð":{"ha":753,"x_min":56,"x_max":697,"o":"m 563 479 l 561 479 l 553 497 q 385 586 500 586 q 214 507 272 586 q 163 321 163 438 q 213 143 163 208 q 376 69 268 69 q 543 154 488 69 q 590 342 590 225 q 563 479 590 422 m 251 840 l 376 883 l 324 999 l 443 997 l 478 918 l 604 963 l 635 875 l 515 833 l 651 525 q 697 328 697 443 q 615 81 697 175 q 378 -19 529 -19 q 140 78 228 -19 q 56 322 56 171 q 140 574 56 478 q 382 675 229 675 q 478 663 433 675 l 415 799 l 281 753 l 251 840 z "},"ñ":{"ha":724,"x_min":90,"x_max":632,"o":"m 632 53 l 522 -50 l 522 372 q 507 514 522 479 q 389 571 482 572 q 242 489 290 569 q 201 318 201 424 l 201 53 l 90 -50 l 90 654 l 201 771 l 201 572 q 392 675 260 675 q 534 635 468 675 q 621 525 600 594 q 632 390 632 488 l 632 53 m 532 807 q 439 725 486 725 q 358 760 421 725 q 285 794 296 794 q 235 753 260 794 q 219 728 231 746 l 186 728 l 186 801 q 276 888 226 888 q 363 853 299 888 q 433 819 426 819 q 499 881 467 819 l 531 881 l 532 807 z "},"ò":{"ha":753,"x_min":64,"x_max":689,"o":"m 689 328 q 607 81 689 175 q 378 -19 521 -19 q 149 78 228 -19 q 64 322 64 171 q 149 574 64 478 q 382 675 238 675 q 608 574 531 675 q 689 328 689 479 m 582 342 q 533 514 582 449 q 385 586 481 586 q 222 507 272 586 q 171 321 171 438 q 221 143 171 208 q 376 69 276 69 q 535 154 488 69 q 582 342 582 225 m 488 664 l 400 726 l 331 792 l 257 979 l 396 926 l 488 664 z "},"ó":{"ha":753,"x_min":64,"x_max":689,"o":"m 689 328 q 607 81 689 175 q 378 -19 521 -19 q 149 78 228 -19 q 64 322 64 171 q 149 574 64 478 q 382 675 238 675 q 608 574 531 675 q 689 328 689 479 m 582 342 q 533 514 582 449 q 385 586 481 586 q 222 507 272 586 q 171 321 171 438 q 221 143 171 208 q 376 69 276 69 q 535 154 488 69 q 582 342 582 225 m 475 924 l 418 789 l 349 724 l 282 724 l 353 924 l 475 924 z "},"ô":{"ha":753,"x_min":64,"x_max":689,"o":"m 689 328 q 607 81 689 175 q 378 -19 521 -19 q 149 78 228 -19 q 64 322 64 171 q 149 574 64 478 q 382 675 238 675 q 608 574 531 675 q 689 328 689 479 m 582 342 q 533 514 582 449 q 385 586 481 586 q 222 507 272 586 q 171 321 171 438 q 221 143 171 208 q 376 69 276 69 q 535 154 488 69 q 582 342 582 225 m 553 726 l 504 726 l 378 858 l 254 726 l 210 726 l 210 804 l 329 936 l 422 936 l 553 807 l 553 726 z "},"õ":{"ha":753,"x_min":64,"x_max":689,"o":"m 689 328 q 607 81 689 175 q 378 -19 521 -19 q 149 78 228 -19 q 64 322 64 171 q 149 574 64 478 q 382 675 238 675 q 608 574 531 675 q 689 328 689 479 m 582 342 q 533 514 582 449 q 385 586 481 586 q 222 507 272 586 q 171 321 171 438 q 221 143 171 208 q 376 69 276 69 q 535 154 488 69 q 582 342 582 225 m 549 807 q 456 725 503 725 q 375 760 438 725 q 301 794 313 794 q 251 753 276 794 q 236 728 247 746 l 203 728 l 203 801 q 293 888 243 888 q 379 853 315 888 q 450 819 443 819 q 515 881 483 819 l 547 881 l 549 807 z "},"ö":{"ha":753,"x_min":64,"x_max":689,"o":"m 689 328 q 607 81 689 175 q 378 -19 521 -19 q 149 78 228 -19 q 64 322 64 171 q 149 574 64 478 q 382 675 238 675 q 608 574 531 675 q 689 328 689 479 m 582 342 q 533 514 582 449 q 385 586 481 586 q 222 507 272 586 q 171 321 171 438 q 221 143 171 208 q 376 69 276 69 q 535 154 488 69 q 582 342 582 225 m 554 817 q 535 763 554 786 q 488 740 517 740 q 440 763 458 740 q 421 817 421 786 q 440 870 421 847 q 488 893 458 893 q 535 870 517 893 q 554 817 554 847 m 318 817 q 299 763 318 786 q 251 740 281 740 q 203 763 222 740 q 185 817 185 786 q 203 870 185 847 q 251 893 222 893 q 299 870 281 893 q 318 817 318 847 z "},"÷":{"ha":767,"x_min":79,"x_max":689,"o":"m 689 349 l 79 349 l 79 460 l 689 460 l 689 349 m 450 632 q 431 578 450 601 q 383 556 413 556 q 336 579 354 556 q 318 632 318 603 q 336 685 318 661 q 383 708 354 708 q 431 685 413 708 q 450 632 450 663 m 450 174 q 431 120 450 143 q 383 97 413 97 q 336 121 354 97 q 318 174 318 144 q 336 226 318 203 q 383 250 354 250 q 431 227 413 250 q 450 174 450 204 z "},"ø":{"ha":753,"x_min":56,"x_max":697,"o":"m 697 328 q 615 81 697 175 q 378 -19 529 -19 q 282 -8 326 -19 l 264 -49 l 168 -49 l 201 26 q 56 322 56 117 q 140 574 56 478 q 382 675 229 675 q 485 661 438 675 l 511 719 l 617 721 l 569 618 q 697 328 697 522 m 449 578 q 385 586 419 586 q 214 507 272 586 q 163 321 163 438 q 240 114 163 179 l 449 578 m 590 342 q 529 529 590 463 l 321 75 q 376 69 346 69 q 543 154 488 69 q 590 342 590 225 z "},"ù":{"ha":724,"x_min":90,"x_max":619,"o":"m 619 -72 l 521 0 l 521 86 q 311 -17 444 -17 q 174 22 231 -17 q 96 140 110 65 q 90 271 90 169 l 90 635 l 200 738 l 200 281 q 217 144 200 179 q 333 88 244 88 q 521 368 521 88 l 521 635 l 619 738 l 619 -72 m 471 664 l 383 726 l 314 792 l 240 979 l 379 926 l 471 664 z "},"ú":{"ha":724,"x_min":90,"x_max":619,"o":"m 619 -72 l 521 0 l 521 86 q 311 -17 444 -17 q 174 22 231 -17 q 96 140 110 65 q 90 271 90 169 l 90 635 l 200 738 l 200 281 q 217 144 200 179 q 333 88 244 88 q 521 368 521 88 l 521 635 l 619 738 l 619 -72 m 458 924 l 401 789 l 332 724 l 265 724 l 336 924 l 458 924 z "},"û":{"ha":724,"x_min":90,"x_max":619,"o":"m 619 -72 l 521 0 l 521 86 q 311 -17 444 -17 q 174 22 231 -17 q 96 140 110 65 q 90 271 90 169 l 90 635 l 200 738 l 200 281 q 217 144 200 179 q 333 88 244 88 q 521 368 521 88 l 521 635 l 619 738 l 619 -72 m 522 726 l 474 726 l 347 858 l 224 726 l 179 726 l 179 804 l 299 936 l 392 936 l 522 807 l 522 726 z "},"ü":{"ha":724,"x_min":90,"x_max":619,"o":"m 619 -72 l 521 0 l 521 86 q 311 -17 444 -17 q 174 22 231 -17 q 96 140 110 65 q 90 271 90 169 l 90 635 l 200 738 l 200 281 q 217 144 200 179 q 333 88 244 88 q 521 368 521 88 l 521 635 l 619 738 l 619 -72 m 529 817 q 510 763 529 786 q 463 740 492 740 q 415 763 433 740 q 396 817 396 786 q 415 870 396 847 q 463 893 433 893 q 510 870 492 893 q 529 817 529 847 m 293 817 q 274 763 293 786 q 226 740 256 740 q 178 763 197 740 q 160 817 160 786 q 178 870 160 847 q 226 893 197 893 q 274 870 256 893 q 293 817 293 847 z "},"ý":{"ha":682,"x_min":67,"x_max":617,"o":"m 617 36 q 550 -208 617 -118 q 328 -311 475 -311 q 67 -78 138 -311 l 192 -164 q 326 -208 215 -219 q 476 -118 440 -208 q 501 79 501 -60 q 300 -17 426 -17 q 168 22 221 -17 q 90 140 104 65 q 85 224 85 171 l 85 621 l 194 713 l 194 281 q 211 144 194 179 q 322 88 239 88 q 507 368 510 88 l 507 621 l 617 713 l 617 36 m 450 924 l 393 789 l 324 724 l 257 724 l 328 924 l 450 924 z "},"þ":{"ha":781,"x_min":89,"x_max":732,"o":"m 732 322 q 650 75 732 169 q 413 -25 564 -25 q 199 49 282 -25 l 199 -296 l 89 -296 l 89 968 l 199 968 l 199 592 q 417 669 283 669 q 651 568 565 669 q 732 322 732 474 m 625 336 q 576 508 625 443 q 419 581 524 581 q 260 515 322 581 q 199 353 199 450 l 199 279 q 258 125 199 186 q 411 64 318 64 q 578 149 522 64 q 625 336 625 219 z "},"ÿ":{"ha":690,"x_min":67,"x_max":617,"o":"m 617 36 q 550 -208 617 -118 q 328 -311 475 -311 q 67 -78 138 -311 l 192 -164 q 326 -208 215 -219 q 476 -118 440 -208 q 501 79 501 -60 q 300 -17 426 -17 q 168 22 221 -17 q 90 140 104 65 q 85 224 85 171 l 85 621 l 194 713 l 194 281 q 211 144 194 179 q 322 88 239 88 q 507 368 510 88 l 507 621 l 617 713 l 617 36 m 532 817 q 513 763 532 786 q 465 740 494 740 q 417 763 436 740 q 399 817 399 786 q 417 870 399 847 q 465 893 436 893 q 513 870 494 893 q 532 817 532 847 m 296 817 q 277 763 296 786 q 229 740 258 740 q 181 763 200 740 q 163 817 163 786 q 181 870 163 847 q 229 893 200 893 q 277 870 258 893 q 296 817 296 847 z "},"ı":{"ha":289,"x_min":93,"x_max":200,"o":"m 200 0 l 93 0 l 93 654 l 200 654 l 200 0 z "},"ˇ":{"ha":376,"x_min":15,"x_max":358,"o":"m 358 856 l 228 726 l 135 726 l 15 858 l 15 936 l 60 936 l 183 804 l 310 936 l 358 936 l 358 856 z "},"˚":{"ha":376,"x_min":33,"x_max":344,"o":"m 344 849 q 188 714 344 714 q 33 846 33 714 q 76 950 33 914 q 189 986 119 986 q 299 953 257 986 q 344 849 344 915 m 272 849 q 189 933 272 933 q 104 846 104 933 q 189 767 104 767 q 272 849 272 767 z "},"":{"ha":651,"x_min":15,"x_max":567,"o":"m 567 917 q 551 873 567 892 q 511 854 535 854 q 472 873 488 854 q 457 917 457 892 q 472 960 457 942 q 511 979 488 979 q 551 960 535 979 q 567 917 567 942 m 564 0 l 457 0 l 457 563 l 210 563 l 210 1 l 101 1 l 101 563 l 15 563 l 15 654 l 101 654 l 101 658 q 151 896 101 826 q 374 978 213 978 l 374 865 q 335 867 351 867 q 226 799 251 867 q 210 654 214 764 l 564 654 l 564 0 z "},"":{"ha":656,"x_min":15,"x_max":574,"o":"m 574 0 l 467 0 l 467 563 l 210 563 l 210 1 l 101 1 l 101 563 l 15 563 l 15 654 l 101 654 l 101 658 q 151 896 101 826 q 374 978 213 978 l 374 865 q 335 867 351 867 q 226 799 251 867 q 210 654 214 764 l 467 654 l 467 981 l 574 981 l 574 0 z "},"€":{"ha":1104,"x_min":56,"x_max":1040,"o":"m 56 358 l 86 450 l 207 450 l 207 501 l 207 549 l 113 546 l 143 644 l 221 642 q 258 749 235 700 q 317 838 281 797 q 453 946 375 910 q 638 982 532 982 q 803 959 726 982 q 926 890 879 936 q 968 843 951 867 q 992 799 985 819 q 1008 743 1000 779 l 910 663 q 888 743 899 718 q 871 778 878 768 q 853 798 864 789 q 828 819 843 807 q 747 861 796 847 q 638 875 697 875 q 421 776 497 875 q 378 717 394 753 q 350 642 361 682 l 653 642 l 624 549 l 339 549 q 333 515 333 532 q 332 482 332 499 l 332 450 l 504 450 l 475 358 l 347 358 q 413 214 368 274 q 506 140 449 165 q 638 115 563 115 q 768 140 708 115 q 864 221 828 165 q 881 245 874 235 q 895 268 889 256 q 907 296 901 281 q 918 333 913 311 l 1040 408 q 1026 269 1033 297 q 1006 216 1018 240 q 976 169 993 192 q 936 122 958 147 q 799 33 882 61 q 621 6 715 6 q 474 28 542 6 q 350 101 406 51 q 265 212 297 149 q 217 358 233 275 l 56 358 z "},"Â":{"ha":897,"x_min":25,"x_max":871,"o":"m 871 0 l 733 0 l 636 300 l 263 300 l 164 0 l 25 0 l 447 981 l 485 981 l 871 0 m 597 410 l 454 754 l 304 410 l 597 410 m 619 1054 l 571 1054 l 444 1186 l 321 1054 l 276 1054 l 276 1132 l 396 1264 l 489 1264 l 619 1135 l 619 1054 z "},"\t":{"ha":376,"x_min":0,"x_max":0,"o":""}}}
